<?xml version="1.0" encoding="UTF-8"?>
<!DOCTYPE svg PUBLIC "-//W3C//DTD SVG 1.1//EN" "http://www.w3.org/Graphics/SVG/1.1/DTD/svg11.dtd">
<svg xmlns="http://www.w3.org/2000/svg" version="1.1" width="507px" height="492px" style="shape-rendering:geometricPrecision; text-rendering:geometricPrecision; image-rendering:optimizeQuality; fill-rule:evenodd; clip-rule:evenodd" xmlns:xlink="http://www.w3.org/1999/xlink">
<g><path style="opacity:0.519" fill="#b06472" d="M 260.5,1.5 C 260.5,1.83333 260.5,2.16667 260.5,2.5C 249.833,2.5 239.167,2.5 228.5,2.5C 228.5,2.16667 228.5,1.83333 228.5,1.5C 239.167,0.166667 249.833,0.166667 260.5,1.5 Z"/></g>
<g><path style="opacity:0.424" fill="#b97c87" d="M 228.5,1.5 C 228.5,1.83333 228.5,2.16667 228.5,2.5C 222.839,2.90676 217.172,3.24009 211.5,3.5C 216.944,2.11636 222.611,1.44969 228.5,1.5 Z"/></g>
<g><path style="opacity:1" fill="#8d0520" d="M 228.5,2.5 C 239.167,2.5 249.833,2.5 260.5,2.5C 266.161,2.90676 271.828,3.24009 277.5,3.5C 280.609,3.26414 283.609,3.59748 286.5,4.5C 294.251,6.47998 302.251,7.81331 310.5,8.5C 310.611,9.11742 310.944,9.61742 311.5,10C 316.486,10.9975 321.486,11.8308 326.5,12.5C 326.611,13.1174 326.944,13.6174 327.5,14C 331.447,15.154 335.447,15.9873 339.5,16.5C 339.47,17.4972 339.97,18.1639 341,18.5C 345.302,19.4497 349.469,20.783 353.5,22.5C 354.736,21.7542 356.07,21.4208 357.5,21.5C 361.406,25.614 366.406,27.9473 372.5,28.5C 376.942,31.8973 381.942,34.564 387.5,36.5C 389.027,36.427 390.027,37.0937 390.5,38.5C 391.634,41.0338 393.634,42.3671 396.5,42.5C 397.634,45.0338 399.634,46.3671 402.5,46.5C 404.15,49.0606 406.484,50.7273 409.5,51.5C 414.53,54.6843 419.196,58.351 423.5,62.5C 424.167,65.1667 425.833,66.8333 428.5,67.5C 428.833,70.5 430.5,72.1667 433.5,72.5C 435.43,76.1002 438.097,79.1002 441.5,81.5C 442.833,82.1667 443.833,83.1667 444.5,84.5C 444.738,86.4044 445.738,87.7377 447.5,88.5C 448.167,88.5 448.5,88.8333 448.5,89.5C 448.738,91.4044 449.738,92.7377 451.5,93.5C 453.262,94.2623 454.262,95.5956 454.5,97.5C 454.738,99.4044 455.738,100.738 457.5,101.5C 457.427,103.027 458.094,104.027 459.5,104.5C 459.427,106.027 460.094,107.027 461.5,107.5C 461.427,109.027 462.094,110.027 463.5,110.5C 463.427,112.027 464.094,113.027 465.5,113.5C 465.427,115.027 466.094,116.027 467.5,116.5C 468.338,116.842 468.672,117.508 468.5,118.5C 468.427,120.027 469.094,121.027 470.5,121.5C 471.338,121.842 471.672,122.508 471.5,123.5C 471.427,125.027 472.094,126.027 473.5,126.5C 476.008,130.182 478.008,134.182 479.5,138.5C 479.5,139.833 479.5,141.167 479.5,142.5C 480.552,142.351 481.552,142.517 482.5,143C 482.892,145.853 484.226,148.02 486.5,149.5C 486.166,152.491 487.166,154.824 489.5,156.5C 489.345,159.716 490.345,162.383 492.5,164.5C 492.5,164.833 492.5,165.167 492.5,165.5C 492.259,167.898 492.926,169.898 494.5,171.5C 494.259,173.898 494.926,175.898 496.5,177.5C 496.41,180.152 497.076,182.485 498.5,184.5C 499.793,187.679 500.46,191.012 500.5,194.5C 499.982,199.939 500.982,204.939 503.5,209.5C 504.85,217.891 505.85,226.225 506.5,234.5C 506.5,244.167 506.5,253.833 506.5,263.5C 505.652,272.772 504.318,282.105 502.5,291.5C 501.883,291.611 501.383,291.944 501,292.5C 500.004,299.3 498.837,305.967 497.5,312.5C 497.768,314.099 497.434,315.432 496.5,316.5C 495.076,318.515 494.41,320.848 494.5,323.5C 492.692,324.918 492.025,326.918 492.5,329.5C 491.069,330.78 490.402,332.447 490.5,334.5C 490.737,335.791 490.404,336.791 489.5,337.5C 488.022,338.97 486.689,340.637 485.5,342.5C 484.526,344.743 484.192,347.076 484.5,349.5C 484.5,349.833 484.5,350.167 484.5,350.5C 482.952,350.821 482.285,351.821 482.5,353.5C 482.672,354.492 482.338,355.158 481.5,355.5C 479.386,356.784 478.386,358.784 478.5,361.5C 478.34,363.153 477.674,364.486 476.5,365.5C 474.412,367.336 473.079,369.669 472.5,372.5C 472.34,374.153 471.674,375.486 470.5,376.5C 468.554,377.035 467.554,378.368 467.5,380.5C 467.573,382.027 466.906,383.027 465.5,383.5C 461.971,383.906 460.971,385.573 462.5,388.5C 462.5,389.167 462.167,389.5 461.5,389.5C 460.292,390.234 458.959,390.567 457.5,390.5C 457.5,392.167 457.5,393.833 457.5,395.5C 457.167,396.5 456.5,397.167 455.5,397.5C 454.094,397.973 453.427,398.973 453.5,400.5C 453.167,401.5 452.5,402.167 451.5,402.5C 450.094,402.973 449.427,403.973 449.5,405.5C 448.833,406.833 447.833,407.833 446.5,408.5C 445.167,409.167 444.167,410.167 443.5,411.5C 443.5,411.833 443.5,412.167 443.5,412.5C 442.167,412.5 441.5,413.167 441.5,414.5C 437.5,419.167 433.167,423.5 428.5,427.5C 426.973,427.427 425.973,428.094 425.5,429.5C 424.5,431.167 423.167,432.5 421.5,433.5C 419.596,433.738 418.262,434.738 417.5,436.5C 407.382,445.396 396.382,453.062 384.5,459.5C 382.973,459.427 381.973,460.094 381.5,461.5C 378.911,461.461 376.911,462.461 375.5,464.5C 375.158,465.338 374.492,465.672 373.5,465.5C 370.911,465.461 368.911,466.461 367.5,468.5C 367.158,469.338 366.492,469.672 365.5,469.5C 361.818,469.711 358.818,471.044 356.5,473.5C 354.302,473.12 352.635,473.787 351.5,475.5C 350.07,476.537 348.403,477.204 346.5,477.5C 344.102,477.259 342.102,477.926 340.5,479.5C 339.432,480.434 338.099,480.768 336.5,480.5C 334.214,480.595 332.214,481.262 330.5,482.5C 326.43,482.432 322.763,483.432 319.5,485.5C 317.283,486.369 314.95,486.702 312.5,486.5C 307.003,487.118 301.503,487.785 296,488.5C 294.014,488.569 292.514,489.235 291.5,490.5C 290.209,490.263 289.209,490.596 288.5,491.5C 278.5,491.5 268.5,491.5 258.5,491.5C 258.389,490.883 258.056,490.383 257.5,490C 252.552,488.95 247.552,488.45 242.5,488.5C 237.537,487.746 232.537,487.413 227.5,487.5C 222.675,487.126 218.008,486.126 213.5,484.5C 211.562,482.837 209.228,482.171 206.5,482.5C 206.167,482.5 205.833,482.5 205.5,482.5C 201.915,480.194 197.915,478.861 193.5,478.5C 190.987,475.569 187.653,474.235 183.5,474.5C 181.824,472.166 179.491,471.166 176.5,471.5C 175.365,469.787 173.698,469.12 171.5,469.5C 167.182,468.008 163.182,466.008 159.5,463.5C 159.027,462.094 158.027,461.427 156.5,461.5C 154.847,461.34 153.514,460.674 152.5,459.5C 152.027,458.094 151.027,457.427 149.5,457.5C 149.027,456.094 148.027,455.427 146.5,455.5C 146.027,454.094 145.027,453.427 143.5,453.5C 143.027,452.094 142.027,451.427 140.5,451.5C 139.738,449.738 138.404,448.738 136.5,448.5C 135.415,446.413 133.749,445.08 131.5,444.5C 129.431,441.427 126.764,439.094 123.5,437.5C 121.833,436.5 120.5,435.167 119.5,433.5C 118.833,430.833 117.167,429.167 114.5,428.5C 112.167,427.5 110.5,425.833 109.5,423.5C 108.738,421.738 107.404,420.738 105.5,420.5C 105.5,418.5 104.5,417.5 102.5,417.5C 100.833,415.5 99.1667,413.5 97.5,411.5C 97.573,409.973 96.9063,408.973 95.5,408.5C 94.8645,406.205 93.5311,404.539 91.5,403.5C 91.4456,401.368 90.4456,400.035 88.5,399.5C 87.6618,399.158 87.3284,398.492 87.5,397.5C 87.1298,394.733 85.7964,392.733 83.5,391.5C 83.5,391.167 83.5,390.833 83.5,390.5C 82.8951,387.873 82.3951,385.207 82,382.5C 81.2411,380.937 80.0744,379.937 78.5,379.5C 77.9344,375.643 75.9344,372.977 72.5,371.5C 70.8333,370.5 69.5,369.167 68.5,367.5C 68.5,365.5 67.5,364.5 65.5,364.5C 64.8333,363.5 64.1667,362.5 63.5,361.5C 62.8645,359.205 61.5311,357.539 59.5,356.5C 59.4456,354.368 58.4456,353.035 56.5,352.5C 55.4835,348.448 53.4835,345.115 50.5,342.5C 50.2503,340.326 49.2503,338.659 47.5,337.5C 46.3263,336.486 45.6596,335.153 45.5,333.5C 45.0728,330.624 44.4062,327.791 43.5,325C 41.5717,321.274 39.5717,317.774 37.5,314.5C 37.2451,312.033 36.2451,310.033 34.5,308.5C 33.6618,308.158 33.3284,307.492 33.5,306.5C 33.5979,304.447 32.9313,302.78 31.5,301.5C 28.8535,296.52 27.0202,291.187 26,285.5C 25.6174,284.944 25.1174,284.611 24.5,284.5C 23.6586,282.621 23.3253,280.621 23.5,278.5C 22.2934,263.527 21.6267,248.527 21.5,233.5C 22.2821,229.326 22.9488,224.992 23.5,220.5C 23.1667,219.833 22.8333,219.167 22.5,218.5C 21.438,220.022 20.7713,221.688 20.5,223.5C 19.7564,227.119 19.423,230.785 19.5,234.5C 19.5,237.5 19.5,240.5 19.5,243.5C 19.5,244.5 19.5,245.5 19.5,246.5C 19.5,254.167 19.5,261.833 19.5,269.5C 19.6659,274.511 19.4993,279.511 19,284.5C 18.3024,281.996 17.4691,279.663 16.5,277.5C 16.7022,275.011 16.2022,272.677 15,270.5C 14.1925,274.027 14.3592,277.36 15.5,280.5C 15.5,280.833 15.5,281.167 15.5,281.5C 15.9625,286.162 16.4625,290.829 17,295.5C 17.2784,296.416 17.7784,297.082 18.5,297.5C 19.3686,299.717 19.702,302.05 19.5,304.5C 19.4095,307.152 20.0762,309.485 21.5,311.5C 21.4095,314.152 22.0762,316.485 23.5,318.5C 24.0569,323.165 25.3902,327.498 27.5,331.5C 27.1663,334.491 28.1663,336.824 30.5,338.5C 30.1201,340.698 30.7868,342.365 32.5,343.5C 32.1201,345.698 32.7868,347.365 34.5,348.5C 34.1663,351.491 35.1663,353.824 37.5,355.5C 37.3573,357.262 37.6906,358.929 38.5,360.5C 38.0302,361.463 37.3635,361.463 36.5,360.5C 34.7497,359.341 33.7497,357.674 33.5,355.5C 33.3404,353.847 32.6737,352.514 31.5,351.5C 30.9579,348.088 29.6246,345.088 27.5,342.5C 27.539,339.911 26.539,337.911 24.5,336.5C 23.6618,336.158 23.3284,335.492 23.5,334.5C 23.4484,331.654 22.4484,329.32 20.5,327.5C 19.6618,327.158 19.3284,326.492 19.5,325.5C 19.6309,324.624 19.2975,323.957 18.5,323.5C 17.4728,324.791 16.4728,324.791 15.5,323.5C 13.7051,314.271 10.7051,305.604 6.5,297.5C 3.71254,288.395 1.8792,279.062 1,269.5C 0.195733,252.789 0.3624,236.123 1.5,219.5C 3.938,213.871 4.938,207.871 4.5,201.5C 4.32526,199.379 4.65859,197.379 5.5,195.5C 6.11742,195.389 6.61742,195.056 7,194.5C 7.49742,191.854 7.66409,189.187 7.5,186.5C 7.19,183.287 7.52333,180.287 8.5,177.5C 10.2766,174.495 11.2766,171.162 11.5,167.5C 11.5,167.167 11.5,166.833 11.5,166.5C 13.8966,163.691 15.2299,160.358 15.5,156.5C 18.4312,153.987 19.7645,150.653 19.5,146.5C 22.375,144.751 23.7083,142.085 23.5,138.5C 26.375,136.751 27.7083,134.085 27.5,130.5C 29.4077,129.514 30.4077,127.848 30.5,125.5C 32.9305,123.954 34.2639,121.621 34.5,118.5C 36.3264,116.853 37.6597,114.853 38.5,112.5C 39.9063,112.027 40.573,111.027 40.5,109.5C 41.9063,109.027 42.573,108.027 42.5,106.5C 44.2624,105.738 45.2624,104.404 45.5,102.5C 47.2624,101.738 48.2624,100.404 48.5,98.5C 51.6448,95.5405 54.3115,92.2071 56.5,88.5C 57.1667,87.1667 58.1667,86.1667 59.5,85.5C 65.1667,80.5 70.5,75.1667 75.5,69.5C 76.1667,68.1667 77.1667,67.1667 78.5,66.5C 80.7488,65.9202 82.4154,64.5869 83.5,62.5C 86.0892,61.5806 88.0892,59.914 89.5,57.5C 91.7488,56.9202 93.4154,55.5869 94.5,53.5C 96.4044,53.2624 97.7377,52.2624 98.5,50.5C 103.722,46.7294 108.722,42.7294 113.5,38.5C 117.808,38.017 121.141,36.017 123.5,32.5C 126.857,32.7841 129.191,31.4507 130.5,28.5C 132.181,26.9925 134.181,25.9925 136.5,25.5C 140.165,25.4982 143.165,24.1648 145.5,21.5C 148.647,21.2634 151.647,20.4301 154.5,19C 155.942,18.6232 156.942,17.7899 157.5,16.5C 159.861,16.3259 162.194,15.9926 164.5,15.5C 168.909,14.418 173.242,13.0847 177.5,11.5C 179.137,12.4439 180.137,11.7773 180.5,9.5C 185.36,10.0343 189.694,9.03426 193.5,6.5C 198.911,6.87495 203.911,5.87495 208.5,3.5C 209.5,3.5 210.5,3.5 211.5,3.5C 217.172,3.24009 222.839,2.90676 228.5,2.5 Z M 266.5,62.5 C 268.611,63.7416 270.611,63.7416 272.5,62.5C 273.151,61.9094 273.818,61.2427 274.5,60.5C 277.759,62.0306 281.093,63.3639 284.5,64.5C 286.038,64.5466 287.038,63.8799 287.5,62.5C 288.833,62.5 290.167,62.5 291.5,62.5C 292.024,64.3057 292.691,65.9724 293.5,67.5C 295.905,68.7682 298.572,69.4349 301.5,69.5C 303.042,70.3007 304.708,70.634 306.5,70.5C 308.515,71.9238 310.848,72.5905 313.5,72.5C 315.515,73.9238 317.848,74.5905 320.5,74.5C 328.653,78.0692 336.986,81.4025 345.5,84.5C 345.973,85.9063 346.973,86.573 348.5,86.5C 350.849,88.341 353.515,89.6743 356.5,90.5C 357.514,91.6737 358.847,92.3404 360.5,92.5C 362.223,94.2181 364.223,95.5514 366.5,96.5C 366.973,97.9063 367.973,98.573 369.5,98.5C 369.973,99.9063 370.973,100.573 372.5,100.5C 373.026,102.23 374.026,103.564 375.5,104.5C 375.5,105.833 376.167,106.5 377.5,106.5C 379.22,107.308 380.887,108.308 382.5,109.5C 383.124,111.754 384.457,113.421 386.5,114.5C 387.781,117.447 389.781,119.781 392.5,121.5C 393.167,122.833 394.167,123.833 395.5,124.5C 395.738,126.404 396.738,127.738 398.5,128.5C 399.124,130.754 400.457,132.421 402.5,133.5C 402.733,135.062 403.4,136.395 404.5,137.5C 405.167,138.833 406.167,139.833 407.5,140.5C 407.5,140.833 407.5,141.167 407.5,141.5C 408.028,142.721 408.695,143.887 409.5,145C 409.167,145.333 408.833,145.667 408.5,146C 410.167,148.333 411.833,150.667 413.5,153C 410.787,155.773 411.454,157.606 415.5,158.5C 414.107,161.602 414.94,162.602 418,161.5C 418.483,162.448 418.649,163.448 418.5,164.5C 419.5,164.5 420.5,164.5 421.5,164.5C 421.5,166.167 421.5,167.833 421.5,169.5C 420.325,169.281 419.325,169.614 418.5,170.5C 419.887,172.21 421.221,173.877 422.5,175.5C 422.5,175.833 422.5,176.167 422.5,176.5C 422.41,179.152 423.076,181.485 424.5,183.5C 424.557,184.609 424.89,185.609 425.5,186.5C 426.713,191.033 428.547,195.366 431,199.5C 430.785,202.811 430.785,206.144 431,209.5C 432.193,211.886 433.36,214.22 434.5,216.5C 433.387,217.946 433.22,219.613 434,221.5C 435.011,222.337 436.178,222.67 437.5,222.5C 436.763,224.608 436.096,226.775 435.5,229C 436.921,234.061 437.587,239.228 437.5,244.5C 436.928,255.163 436.428,265.83 436,276.5C 434.916,277.665 434.083,278.998 433.5,280.5C 434.825,283.531 434.825,286.531 433.5,289.5C 432.662,289.842 432.328,290.508 432.5,291.5C 431.075,294.903 430.242,298.57 430,302.5C 428.807,304.497 427.307,306.164 425.5,307.5C 424.606,311.858 423.272,316.191 421.5,320.5C 419.75,321.659 418.75,323.326 418.5,325.5C 417.504,325.414 416.671,325.748 416,326.5C 415.427,328.641 414.594,330.641 413.5,332.5C 412.662,332.842 412.328,333.508 412.5,334.5C 411.094,334.973 410.427,335.973 410.5,337.5C 407.027,339.637 404.694,342.637 403.5,346.5C 402.833,346.5 402.5,346.833 402.5,347.5C 398.76,353.3 394.76,358.966 390.5,364.5C 386.461,365.041 384.128,367.374 383.5,371.5C 382.094,371.973 381.427,372.973 381.5,374.5C 377.727,374.657 376.727,376.324 378.5,379.5C 379.833,380.833 381.167,380.833 382.5,379.5C 384.027,379.573 385.027,378.906 385.5,377.5C 387.262,376.738 388.262,375.404 388.5,373.5C 389.167,373.5 389.5,373.167 389.5,372.5C 390.429,371.064 391.595,369.731 393,368.5C 394.68,369.603 396.18,369.27 397.5,367.5C 398.466,365.604 398.799,363.604 398.5,361.5C 400.922,364.446 402.589,364.113 403.5,360.5C 404.833,359.833 405.833,358.833 406.5,357.5C 407.496,357.586 408.329,357.252 409,356.5C 409.483,357.448 409.649,358.448 409.5,359.5C 405.76,360.908 403.427,363.575 402.5,367.5C 396.913,371.087 392.246,375.754 388.5,381.5C 385.428,383.358 382.428,385.358 379.5,387.5C 377.973,387.427 376.973,388.094 376.5,389.5C 375.833,389.5 375.5,389.833 375.5,390.5C 369.63,393.675 363.963,397.341 358.5,401.5C 360.421,402.641 362.421,402.808 364.5,402C 368.429,399.212 372.429,396.712 376.5,394.5C 378.749,393.92 380.415,392.587 381.5,390.5C 382.833,389.5 384.167,388.5 385.5,387.5C 387.389,386.396 389.055,385.063 390.5,383.5C 391.71,383.068 392.71,382.401 393.5,381.5C 394.71,381.068 395.71,380.401 396.5,379.5C 397.833,378.833 398.833,377.833 399.5,376.5C 400.837,375.685 401.837,374.518 402.5,373C 404.058,372.79 405.391,372.29 406.5,371.5C 406.5,371.167 406.5,370.833 406.5,370.5C 407.338,370.842 407.672,371.508 407.5,372.5C 407.5,372.833 407.5,373.167 407.5,373.5C 405.1,375.296 403.433,377.63 402.5,380.5C 400.778,382.45 398.612,383.783 396,384.5C 395.764,386.811 394.931,388.811 393.5,390.5C 390.669,391.079 388.336,392.412 386.5,394.5C 384.973,394.427 383.973,395.094 383.5,396.5C 382.512,397.795 381.512,399.128 380.5,400.5C 378.973,400.427 377.973,401.094 377.5,402.5C 375.596,402.738 374.262,403.738 373.5,405.5C 371.973,405.427 370.973,406.094 370.5,407.5C 367.702,408.65 365.035,409.983 362.5,411.5C 360.62,411.229 359.287,411.896 358.5,413.5C 358.167,413.5 357.833,413.5 357.5,413.5C 354.088,414.075 351.088,415.408 348.5,417.5C 346.847,417.66 345.514,418.326 344.5,419.5C 340.31,419.023 337.31,420.689 335.5,424.5C 329.84,424.441 324.506,425.441 319.5,427.5C 316.843,427.935 314.509,428.935 312.5,430.5C 306.676,430.21 301.009,430.877 295.5,432.5C 294.036,433.405 292.702,433.405 291.5,432.5C 290.167,432.5 288.833,432.5 287.5,432.5C 287.263,433.791 287.596,434.791 288.5,435.5C 288.5,436.167 288.5,436.833 288.5,437.5C 281.19,436.558 273.856,436.558 266.5,437.5C 263.772,436.795 260.939,436.128 258,435.5C 257.25,436.126 256.416,436.626 255.5,437C 255.833,437.333 256.167,437.667 256.5,438C 250.843,438.499 245.176,438.666 239.5,438.5C 237.393,437.532 235.059,437.198 232.5,437.5C 229.411,436.215 226.078,435.549 222.5,435.5C 218.382,434.291 214.049,433.624 209.5,433.5C 209.672,432.508 209.338,431.842 208.5,431.5C 208.167,431.5 207.833,431.5 207.5,431.5C 206.462,429.481 205.128,429.147 203.5,430.5C 200.554,430.103 197.887,429.103 195.5,427.5C 194.833,427.167 194.167,426.833 193.5,426.5C 190.112,424.882 186.446,423.882 182.5,423.5C 181.488,422.128 180.488,420.795 179.5,419.5C 179.423,418.25 178.756,417.417 177.5,417C 175.134,416.56 172.801,416.06 170.5,415.5C 169.564,414.026 168.23,413.026 166.5,412.5C 165.101,411.11 163.434,410.11 161.5,409.5C 161.512,406.858 160.179,405.525 157.5,405.5C 157.167,405.5 156.833,405.5 156.5,405.5C 156.912,403.027 155.912,401.694 153.5,401.5C 152.167,399.5 150.5,397.833 148.5,396.5C 147.522,393.522 145.522,391.522 142.5,390.5C 142.158,389.662 141.492,389.328 140.5,389.5C 137.192,386.529 133.859,383.529 130.5,380.5C 129.674,378.736 128.341,377.402 126.5,376.5C 127.138,373.144 125.804,371.144 122.5,370.5C 121.833,369.167 120.833,368.167 119.5,367.5C 118.167,365.487 116.834,363.487 115.5,361.5C 113.616,362.115 112.616,363.448 112.5,365.5C 112.34,367.355 113.007,368.688 114.5,369.5C 115.167,371.5 116.5,372.833 118.5,373.5C 119.96,375.463 121.627,377.296 123.5,379C 122.272,380.49 122.272,381.99 123.5,383.5C 123.811,384.478 124.478,385.145 125.5,385.5C 126.451,384.674 127.451,384.508 128.5,385C 128.264,386.117 128.264,387.284 128.5,388.5C 128.833,389.5 129.5,390.167 130.5,390.5C 131.73,392.297 132.396,394.297 132.5,396.5C 131.222,396.218 130.222,395.551 129.5,394.5C 129.262,392.596 128.262,391.262 126.5,390.5C 126.158,389.662 125.492,389.328 124.5,389.5C 123.833,388.167 122.833,387.167 121.5,386.5C 121.204,384.597 120.537,382.93 119.5,381.5C 118.71,380.599 117.71,379.932 116.5,379.5C 116.672,378.508 116.338,377.842 115.5,377.5C 115.262,375.596 114.262,374.262 112.5,373.5C 112.167,373.5 111.833,373.5 111.5,373.5C 110.828,372.733 109.995,372.066 109,371.5C 108.144,367.508 106.644,363.842 104.5,360.5C 102.646,356.713 100.646,353.046 98.5,349.5C 98.6716,348.508 98.3382,347.842 97.5,347.5C 97.114,345.063 95.9473,343.063 94,341.5C 92.86,346.564 94.0267,350.897 97.5,354.5C 97.7922,358.066 99.1256,361.066 101.5,363.5C 103.848,367.535 106.182,371.535 108.5,375.5C 108.657,376.873 108.49,378.207 108,379.5C 107.617,378.944 107.117,378.611 106.5,378.5C 105.833,377.167 104.833,376.167 103.5,375.5C 100.833,373.167 98.1667,370.833 95.5,368.5C 95.573,366.973 94.9063,365.973 93.5,365.5C 93.4088,363.302 94.0755,362.969 95.5,364.5C 96.4006,366.727 98.0672,367.727 100.5,367.5C 100.771,365.62 100.104,364.287 98.5,363.5C 97.791,362.596 96.791,362.263 95.5,362.5C 95.6602,360.801 95.4935,359.134 95,357.5C 94.3292,356.748 93.4959,356.414 92.5,356.5C 90.6216,355.468 88.9549,354.134 87.5,352.5C 86.2042,347.607 84.5376,342.94 82.5,338.5C 81.7149,331.997 79.7149,325.997 76.5,320.5C 75.0182,314.152 74.0182,307.819 73.5,301.5C 73.7845,299.585 73.4511,297.919 72.5,296.5C 72.5159,290.416 72.1826,284.416 71.5,278.5C 71.5,276.833 71.5,275.167 71.5,273.5C 70.1779,273.33 69.0113,273.663 68,274.5C 67.5027,270.476 67.6693,266.476 68.5,262.5C 68.5,260.167 68.5,257.833 68.5,255.5C 69.2368,252.275 69.9035,248.941 70.5,245.5C 71.4339,242.344 72.1006,239.011 72.5,235.5C 69.858,235.488 68.5246,236.821 68.5,239.5C 66.9261,241.102 66.2594,243.102 66.5,245.5C 65.6851,246.429 64.8518,247.429 64,248.5C 63.7065,254.867 63.2065,261.2 62.5,267.5C 59.9162,268.048 58.9162,269.715 59.5,272.5C 58.71,271.391 58.21,270.058 58,268.5C 57.5001,256.171 57.3335,243.838 57.5,231.5C 59.0276,232.802 60.0276,234.469 60.5,236.5C 60.4607,238.224 60.794,238.557 61.5,237.5C 63.2499,233.817 63.9166,229.817 63.5,225.5C 64.7815,220.344 65.7815,215.011 66.5,209.5C 68.4579,201.936 70.4579,194.27 72.5,186.5C 74.0719,183.785 75.0719,180.785 75.5,177.5C 76.9313,176.22 77.5979,174.553 77.5,172.5C 78.5375,171.07 79.2041,169.403 79.5,167.5C 81.3433,165.147 82.6766,162.48 83.5,159.5C 83.5,159.167 83.5,158.833 83.5,158.5C 85.588,156.664 86.9213,154.331 87.5,151.5C 88.3382,151.158 88.6716,150.492 88.5,149.5C 90.2503,148.341 91.2503,146.674 91.5,144.5C 92.9063,144.027 93.573,143.027 93.5,141.5C 94.9063,141.027 95.573,140.027 95.5,138.5C 98.2411,136.025 100.241,133.025 101.5,129.5C 102.833,129.5 103.5,128.833 103.5,127.5C 104.5,127.167 105.167,126.5 105.5,125.5C 106.906,125.027 107.573,124.027 107.5,122.5C 108.309,124.292 108.809,126.292 109,128.5C 109.995,127.934 110.828,127.267 111.5,126.5C 113.885,124.116 115.885,121.45 117.5,118.5C 119.262,117.738 120.262,116.404 120.5,114.5C 121.167,114.5 121.5,114.167 121.5,113.5C 122.906,113.027 123.573,112.027 123.5,110.5C 124.5,110.167 125.167,109.5 125.5,108.5C 127.914,107.089 129.581,105.089 130.5,102.5C 131.167,102.5 131.5,102.167 131.5,101.5C 132.94,100.637 134.274,100.637 135.5,101.5C 137.145,100.304 138.811,99.3037 140.5,98.5C 142.527,98.6621 144.527,98.4955 146.5,98C 146.598,96.382 146.598,94.882 146.5,93.5C 147.833,92.8333 148.833,91.8333 149.5,90.5C 151.306,89.9759 152.972,89.3092 154.5,88.5C 155.167,88.5 155.5,88.1667 155.5,87.5C 159.576,90.3877 162.41,89.3877 164,84.5C 165.915,85.9156 167.415,85.5822 168.5,83.5C 169.167,83.5 169.5,83.1667 169.5,82.5C 170.267,81.828 170.934,80.9947 171.5,80C 173.852,79.7599 175.852,78.9265 177.5,77.5C 181.734,76.2055 185.734,74.5388 189.5,72.5C 191.553,72.5979 193.22,71.9313 194.5,70.5C 201.02,69.4542 207.353,68.1209 213.5,66.5C 213.833,66.5 214.167,66.5 214.5,66.5C 217.445,64.6662 220.445,63.9995 223.5,64.5C 228.414,64.6382 233.081,63.9715 237.5,62.5C 237.833,62.5 238.167,62.5 238.5,62.5C 239.167,62.5 239.5,62.1667 239.5,61.5C 242.765,61.2082 245.765,61.8749 248.5,63.5C 250.626,63.2702 252.293,62.2702 253.5,60.5C 254.5,61.1667 255.5,61.8333 256.5,62.5C 259.812,61.3818 263.145,61.3818 266.5,62.5 Z M 298.5,62.5 C 298.833,63.1667 299.167,63.8333 299.5,64.5C 293.547,64.6277 293.213,63.961 298.5,62.5 Z M 418.5,357.5 C 418.5,358.167 418.5,358.833 418.5,359.5C 417.662,359.842 417.328,360.508 417.5,361.5C 415.167,363.167 413.167,365.167 411.5,367.5C 410.662,367.158 410.328,366.492 410.5,365.5C 412.167,364.5 413.5,363.167 414.5,361.5C 415.906,361.027 416.573,360.027 416.5,358.5C 417.167,358.167 417.833,357.833 418.5,357.5 Z M 114.5,386.5 C 115.167,386.833 115.833,387.167 116.5,387.5C 116.918,388.222 117.584,388.722 118.5,389C 117.243,391.076 117.576,392.91 119.5,394.5C 118.391,394.443 117.391,394.11 116.5,393.5C 115.027,391.605 113.36,389.939 111.5,388.5C 112.496,388.414 113.329,388.748 114,389.5C 114.483,388.552 114.649,387.552 114.5,386.5 Z M 141.5,416.5 C 143.569,419.573 146.236,421.906 149.5,423.5C 150.262,425.262 151.596,426.262 153.5,426.5C 154.262,428.262 155.596,429.262 157.5,429.5C 158.514,430.674 159.847,431.34 161.5,431.5C 161.973,432.906 162.973,433.573 164.5,433.5C 166.849,435.341 169.515,436.674 172.5,437.5C 174.849,439.341 177.515,440.674 180.5,441.5C 182.509,443.065 184.843,444.065 187.5,444.5C 188.514,445.674 189.847,446.34 191.5,446.5C 193.509,448.065 195.843,449.065 198.5,449.5C 198.208,450.874 197.875,452.207 197.5,453.5C 194.482,451.6 191.149,450.267 187.5,449.5C 185.972,448.691 184.306,448.024 182.5,447.5C 180.062,445.733 177.395,444.399 174.5,443.5C 172.819,441.992 170.819,440.992 168.5,440.5C 166.819,438.992 164.819,437.992 162.5,437.5C 162.158,436.662 161.492,436.328 160.5,436.5C 159.008,433.677 156.674,432.01 153.5,431.5C 153.027,430.094 152.027,429.427 150.5,429.5C 148.704,427.1 146.37,425.433 143.5,424.5C 142.579,421.426 140.746,420.426 138,421.5C 137.8,419.68 136.966,418.347 135.5,417.5C 136.469,416.691 137.302,415.691 138,414.5C 138.816,415.823 139.983,416.489 141.5,416.5 Z"/></g>
<g><path style="opacity:0.161" fill="#be8f98" d="M 260.5,2.5 C 260.5,2.16667 260.5,1.83333 260.5,1.5C 266.389,1.44969 272.056,2.11636 277.5,3.5C 271.828,3.24009 266.161,2.90676 260.5,2.5 Z"/></g>
<g><path style="opacity:0.78" fill="#ac5766" d="M 208.5,3.5 C 203.911,5.87495 198.911,6.87495 193.5,6.5C 198.273,4.9783 203.273,3.9783 208.5,3.5 Z"/></g>
<g><path style="opacity:0.196" fill="#b67682" d="M 286.5,4.5 C 294.767,4.98886 302.767,6.32219 310.5,8.5C 302.251,7.81331 294.251,6.47998 286.5,4.5 Z"/></g>
<g><path style="opacity:0.933" fill="#a84c5a" d="M 193.5,6.5 C 189.694,9.03426 185.36,10.0343 180.5,9.5C 184.547,7.74025 188.88,6.74025 193.5,6.5 Z"/></g>
<g><path style="opacity:0.388" fill="#b36c79" d="M 310.5,8.5 C 316.094,9.2317 321.427,10.565 326.5,12.5C 321.486,11.8308 316.486,10.9975 311.5,10C 310.944,9.61742 310.611,9.11742 310.5,8.5 Z"/></g>
<g><path style="opacity:1" fill="#9e3341" d="M 180.5,9.5 C 180.137,11.7773 179.137,12.4439 177.5,11.5C 173.242,13.0847 168.909,14.418 164.5,15.5C 164.833,14.8333 165.167,14.1667 165.5,13.5C 170.273,11.3897 175.273,10.0563 180.5,9.5 Z"/></g>
<g><path style="opacity:0.69" fill="#ae5e6b" d="M 326.5,12.5 C 331.165,13.0777 335.499,14.4111 339.5,16.5C 335.447,15.9873 331.447,15.154 327.5,14C 326.944,13.6174 326.611,13.1174 326.5,12.5 Z"/></g>
<g><path style="opacity:0.482" fill="#b36977" d="M 165.5,13.5 C 165.167,14.1667 164.833,14.8333 164.5,15.5C 162.194,15.9926 159.861,16.3259 157.5,16.5C 159.936,15.129 162.603,14.129 165.5,13.5 Z"/></g>
<g><path style="opacity:0.835" fill="#ad5c67" d="M 339.5,16.5 C 345.606,18.208 351.606,19.8746 357.5,21.5C 356.07,21.4208 354.736,21.7542 353.5,22.5C 349.469,20.783 345.302,19.4497 341,18.5C 339.97,18.1639 339.47,17.4972 339.5,16.5 Z"/></g>
<g><path style="opacity:0.675" fill="#aa5260" d="M 157.5,16.5 C 156.942,17.7899 155.942,18.6232 154.5,19C 151.647,20.4301 148.647,21.2634 145.5,21.5C 149.203,19.3213 153.203,17.6546 157.5,16.5 Z"/></g>
<g><path style="opacity:0.773" fill="#aa505e" d="M 145.5,21.5 C 143.165,24.1648 140.165,25.4982 136.5,25.5C 139.088,23.4082 142.088,22.0749 145.5,21.5 Z"/></g>
<g><path style="opacity:0.996" fill="#a2424e" d="M 357.5,21.5 C 362.93,23.0502 367.93,25.3836 372.5,28.5C 366.406,27.9473 361.406,25.614 357.5,21.5 Z"/></g>
<g><path style="opacity:1" fill="#a3414d" d="M 130.5,28.5 C 129.191,31.4507 126.857,32.7841 123.5,32.5C 125.336,30.412 127.669,29.0787 130.5,28.5 Z"/></g>
<g><path style="opacity:0.69" fill="#ae5f6b" d="M 372.5,28.5 C 377.941,30.3867 382.941,33.0534 387.5,36.5C 381.942,34.564 376.942,31.8973 372.5,28.5 Z"/></g>
<g><path style="opacity:1" fill="#a13b48" d="M 123.5,32.5 C 121.141,36.017 117.808,38.017 113.5,38.5C 116.161,35.4977 119.495,33.4977 123.5,32.5 Z"/></g>
<g><path style="opacity:0.788" fill="#a64a58" d="M 390.5,38.5 C 392.853,39.3403 394.853,40.6736 396.5,42.5C 393.634,42.3671 391.634,41.0338 390.5,38.5 Z"/></g>
<g><path style="opacity:0.788" fill="#a64b58" d="M 396.5,42.5 C 398.853,43.3403 400.853,44.6736 402.5,46.5C 399.634,46.3671 397.634,45.0338 396.5,42.5 Z"/></g>
<g><path style="opacity:0.659" fill="#ac5b67" d="M 402.5,46.5 C 405.37,47.4333 407.704,49.1 409.5,51.5C 406.484,50.7273 404.15,49.0606 402.5,46.5 Z"/></g>
<g><path style="opacity:0.396" fill="#b46b79" d="M 98.5,50.5 C 97.7377,52.2624 96.4044,53.2624 94.5,53.5C 95.2623,51.7376 96.5956,50.7376 98.5,50.5 Z"/></g>
<g><path style="opacity:0.655" fill="#ae5a69" d="M 94.5,53.5 C 93.4154,55.5869 91.7488,56.9202 89.5,57.5C 90.5846,55.4131 92.2512,54.0798 94.5,53.5 Z"/></g>
<g><path style="opacity:0.528" fill="#ae5d6d" d="M 244.5,60.5 C 242.585,60.2155 240.919,60.5489 239.5,61.5C 239.5,62.1667 239.167,62.5 238.5,62.5C 238.5,61.5 238.5,60.5 238.5,59.5C 240.735,59.2053 242.735,59.5386 244.5,60.5 Z"/></g>
<g><path style="opacity:0.196" fill="#ba818c" d="M 287.5,62.5 C 287.038,63.8799 286.038,64.5466 284.5,64.5C 281.093,63.3639 277.759,62.0306 274.5,60.5C 273.818,61.2427 273.151,61.9094 272.5,62.5C 272.5,61.5 272.5,60.5 272.5,59.5C 277.709,59.8588 282.709,60.8588 287.5,62.5 Z"/></g>
<g><path style="opacity:0.592" fill="#ad5767" d="M 89.5,57.5 C 88.0892,59.914 86.0892,61.5806 83.5,62.5C 84.9108,60.086 86.9108,58.4194 89.5,57.5 Z"/></g>
<g><path style="opacity:0.341" fill="#b77682" d="M 266.5,62.5 C 263.145,61.3818 259.812,61.3818 256.5,62.5C 255.5,61.8333 254.5,61.1667 253.5,60.5C 252.293,62.2702 250.626,63.2702 248.5,63.5C 245.765,61.8749 242.765,61.2082 239.5,61.5C 240.919,60.5489 242.585,60.2155 244.5,60.5C 246.199,60.6204 247.865,60.9537 249.5,61.5C 252.6,59.4234 255.933,59.0901 259.5,60.5C 261.486,60.2132 263.32,59.5465 265,58.5C 267.5,59.1576 268,60.4909 266.5,62.5 Z"/></g>
<g><path style="opacity:0.08" fill="#c59da6" d="M 237.5,62.5 C 233.081,63.9715 228.414,64.6382 223.5,64.5C 227.919,63.0285 232.586,62.3618 237.5,62.5 Z"/></g>
<g><path style="opacity:0.353" fill="#b77a85" d="M 423.5,62.5 C 425.5,63.8333 427.167,65.5 428.5,67.5C 425.833,66.8333 424.167,65.1667 423.5,62.5 Z"/></g>
<g><path style="opacity:0.278" fill="#bd8b95" d="M 298.5,62.5 C 293.213,63.961 293.547,64.6277 299.5,64.5C 299.833,64.5 300.167,64.5 300.5,64.5C 297.841,64.9174 295.508,65.9174 293.5,67.5C 292.691,65.9724 292.024,64.3057 291.5,62.5C 294.005,61.5829 296.338,61.5829 298.5,62.5 Z"/></g>
<g><path style="opacity:0.616" fill="#b05e6c" d="M 83.5,62.5 C 82.4154,64.5869 80.7488,65.9202 78.5,66.5C 79.5846,64.4131 81.2512,63.0798 83.5,62.5 Z"/></g>
<g><path style="opacity:0.208" fill="#b6717e" d="M 223.5,64.5 C 220.445,63.9995 217.445,64.6662 214.5,66.5C 215.058,65.2101 216.058,64.3768 217.5,64C 216.294,62.9823 216.627,62.4823 218.5,62.5C 220.056,63.5471 221.723,64.2137 223.5,64.5 Z"/></g>
<g><path style="opacity:1" fill="#9d3343" d="M 300.5,64.5 C 302.923,65.9501 304.923,67.9501 306.5,70.5C 304.708,70.634 303.042,70.3007 301.5,69.5C 299.162,67.9605 296.495,67.2938 293.5,67.5C 295.508,65.9174 297.841,64.9174 300.5,64.5 Z"/></g>
<g><path style="opacity:0.278" fill="#c0939c" d="M 293.5,67.5 C 296.495,67.2938 299.162,67.9605 301.5,69.5C 298.572,69.4349 295.905,68.7682 293.5,67.5 Z"/></g>
<g><path style="opacity:0.035" fill="#c2919b" d="M 213.5,66.5 C 207.353,68.1209 201.02,69.4542 194.5,70.5C 200.42,67.786 206.753,66.4526 213.5,66.5 Z"/></g>
<g><path style="opacity:0.537" fill="#ba808b" d="M 306.5,70.5 C 309.152,70.4095 311.485,71.0762 313.5,72.5C 310.848,72.5905 308.515,71.9238 306.5,70.5 Z"/></g>
<g><path style="opacity:0.561" fill="#a95461" d="M 428.5,67.5 C 430.5,68.8333 432.167,70.5 433.5,72.5C 430.5,72.1667 428.833,70.5 428.5,67.5 Z"/></g>
<g><path style="opacity:0.42" fill="#b67581" d="M 313.5,72.5 C 316.228,72.1706 318.562,72.8372 320.5,74.5C 317.848,74.5905 315.515,73.9238 313.5,72.5 Z"/></g>
<g><path style="opacity:0.576" fill="#b4717d" d="M 433.5,72.5 C 436.903,74.8998 439.57,77.8998 441.5,81.5C 438.097,79.1002 435.43,76.1002 433.5,72.5 Z"/></g>
<g><path style="opacity:0.059" fill="#bd838d" d="M 189.5,72.5 C 185.734,74.5388 181.734,76.2055 177.5,77.5C 180.835,74.7077 184.835,73.041 189.5,72.5 Z"/></g>
<g><path style="opacity:0.553" fill="#b56b78" d="M 75.5,69.5 C 70.5,75.1667 65.1667,80.5 59.5,85.5C 63.8333,79.1667 69.1667,73.8333 75.5,69.5 Z"/></g>
<g><path style="opacity:0.996" fill="#ab5763" d="M 320.5,74.5 C 323.522,74.804 326.522,75.304 329.5,76C 335.311,78.0706 340.645,80.9039 345.5,84.5C 336.986,81.4025 328.653,78.0692 320.5,74.5 Z"/></g>
<g><path style="opacity:0.408" fill="#bd8590" d="M 177.5,77.5 C 175.852,78.9265 173.852,79.7599 171.5,80C 170.934,80.9947 170.267,81.828 169.5,82.5C 169.33,81.1779 169.663,80.0113 170.5,79C 172.813,78.338 175.146,77.838 177.5,77.5 Z"/></g>
<g><path style="opacity:0.584" fill="#af5d6c" d="M 168.5,83.5 C 167.415,85.5822 165.915,85.9156 164,84.5C 162.41,89.3877 159.576,90.3877 155.5,87.5C 157.836,86.1391 159.502,84.1391 160.5,81.5C 162.62,80.1285 163.62,80.7952 163.5,83.5C 165.167,83.5 166.833,83.5 168.5,83.5 Z"/></g>
<g><path style="opacity:0.184" fill="#bc8892" d="M 345.5,84.5 C 347.027,84.427 348.027,85.0937 348.5,86.5C 346.973,86.573 345.973,85.9063 345.5,84.5 Z"/></g>
<g><path style="opacity:0.459" fill="#b36f7c" d="M 444.5,84.5 C 446.262,85.2623 447.262,86.5956 447.5,88.5C 445.738,87.7377 444.738,86.4044 444.5,84.5 Z"/></g>
<g><path style="opacity:1" fill="#a2404b" d="M 348.5,86.5 C 350.924,86.1924 353.257,86.5258 355.5,87.5C 356.127,88.4168 356.461,89.4168 356.5,90.5C 353.515,89.6743 350.849,88.341 348.5,86.5 Z"/></g>
<g><path style="opacity:0.518" fill="#b66f7c" d="M 154.5,88.5 C 152.972,89.3092 151.306,89.9759 149.5,90.5C 150.552,88.744 152.219,88.0773 154.5,88.5 Z"/></g>
<g><path style="opacity:0.875" fill="#af5f6a" d="M 356.5,90.5 C 358.483,90.1568 359.817,90.8235 360.5,92.5C 358.847,92.3404 357.514,91.6737 356.5,90.5 Z"/></g>
<g><path style="opacity:0.557" fill="#b16976" d="M 448.5,89.5 C 450.262,90.2623 451.262,91.5956 451.5,93.5C 449.738,92.7377 448.738,91.4044 448.5,89.5 Z"/></g>
<g><path style="opacity:0.4" fill="#b9737f" d="M 56.5,88.5 C 54.3115,92.2071 51.6448,95.5405 48.5,98.5C 50.2076,94.4281 52.8743,91.0948 56.5,88.5 Z"/></g>
<g><path style="opacity:0.659" fill="#ab5663" d="M 360.5,92.5 C 363.522,92.3419 365.522,93.6752 366.5,96.5C 364.223,95.5514 362.223,94.2181 360.5,92.5 Z"/></g>
<g><path style="opacity:0.612" fill="#b26574" d="M 146.5,93.5 C 146.598,94.882 146.598,96.382 146.5,98C 144.527,98.4955 142.527,98.6621 140.5,98.5C 139.222,98.2178 138.222,97.5511 137.5,96.5C 137.56,95.9569 137.893,95.6236 138.5,95.5C 140.179,97.1045 142.179,97.7711 144.5,97.5C 144.157,95.5168 144.824,94.1834 146.5,93.5 Z"/></g>
<g><path style="opacity:0.271" fill="#b87c88" d="M 366.5,96.5 C 368.027,96.427 369.027,97.0937 369.5,98.5C 367.973,98.573 366.973,97.9063 366.5,96.5 Z"/></g>
<g><path style="opacity:0.627" fill="#ac5d6b" d="M 454.5,97.5 C 456.262,98.2623 457.262,99.5956 457.5,101.5C 455.738,100.738 454.738,99.4044 454.5,97.5 Z"/></g>
<g><path style="opacity:0.627" fill="#b26472" d="M 48.5,98.5 C 48.2624,100.404 47.2624,101.738 45.5,102.5C 45.7376,100.596 46.7376,99.2623 48.5,98.5 Z"/></g>
<g><path style="opacity:0.259" fill="#bb848d" d="M 369.5,98.5 C 371.027,98.427 372.027,99.0937 372.5,100.5C 370.973,100.573 369.973,99.9063 369.5,98.5 Z"/></g>
<g><path style="opacity:0.067" fill="#c599a2" d="M 137.5,96.5 C 138.222,97.5511 139.222,98.2178 140.5,98.5C 138.811,99.3037 137.145,100.304 135.5,101.5C 134.274,100.637 132.94,100.637 131.5,101.5C 133.183,99.4864 135.183,97.8198 137.5,96.5 Z"/></g>
<g><path style="opacity:0.251" fill="#b16c79" d="M 457.5,101.5 C 458.906,101.973 459.573,102.973 459.5,104.5C 458.094,104.027 457.427,103.027 457.5,101.5 Z"/></g>
<g><path style="opacity:0.416" fill="#b36675" d="M 45.5,102.5 C 45.2624,104.404 44.2624,105.738 42.5,106.5C 42.7376,104.596 43.7376,103.262 45.5,102.5 Z"/></g>
<g><path style="opacity:0.024" fill="#bf8f99" d="M 375.5,104.5 C 376.5,104.833 377.167,105.5 377.5,106.5C 376.167,106.5 375.5,105.833 375.5,104.5 Z"/></g>
<g><path style="opacity:0.518" fill="#ab5c6b" d="M 459.5,104.5 C 460.906,104.973 461.573,105.973 461.5,107.5C 460.094,107.027 459.427,106.027 459.5,104.5 Z"/></g>
<g><path style="opacity:0.102" fill="#c18b95" d="M 130.5,102.5 C 129.581,105.089 127.914,107.089 125.5,108.5C 126.419,105.911 128.086,103.911 130.5,102.5 Z"/></g>
<g><path style="opacity:0.341" fill="#b56977" d="M 42.5,106.5 C 42.573,108.027 41.9063,109.027 40.5,109.5C 40.427,107.973 41.0937,106.973 42.5,106.5 Z"/></g>
<g><path style="opacity:0.765" fill="#b26773" d="M 382.5,109.5 C 384.531,110.539 385.864,112.205 386.5,114.5C 384.457,113.421 383.124,111.754 382.5,109.5 Z"/></g>
<g><path style="opacity:0.337" fill="#ae606e" d="M 461.5,107.5 C 462.906,107.973 463.573,108.973 463.5,110.5C 462.094,110.027 461.427,109.027 461.5,107.5 Z"/></g>
<g><path style="opacity:0.353" fill="#b66b7a" d="M 40.5,109.5 C 40.573,111.027 39.9063,112.027 38.5,112.5C 38.427,110.973 39.0937,109.973 40.5,109.5 Z"/></g>
<g><path style="opacity:0.082" fill="#bf8892" d="M 123.5,110.5 C 123.573,112.027 122.906,113.027 121.5,113.5C 121.427,111.973 122.094,110.973 123.5,110.5 Z"/></g>
<g><path style="opacity:0.31" fill="#b06876" d="M 463.5,110.5 C 464.906,110.973 465.573,111.973 465.5,113.5C 464.094,113.027 463.427,112.027 463.5,110.5 Z"/></g>
<g><path style="opacity:0.353" fill="#b97682" d="M 38.5,112.5 C 37.6597,114.853 36.3264,116.853 34.5,118.5C 34.8449,115.802 36.1782,113.802 38.5,112.5 Z"/></g>
<g><path style="opacity:1" fill="#aa535e" d="M 386.5,114.5 C 389.879,115.581 391.879,117.915 392.5,121.5C 389.781,119.781 387.781,117.447 386.5,114.5 Z"/></g>
<g><path style="opacity:0.263" fill="#b3707d" d="M 465.5,113.5 C 466.906,113.973 467.573,114.973 467.5,116.5C 466.094,116.027 465.427,115.027 465.5,113.5 Z"/></g>
<g><path style="opacity:0.098" fill="#c18b95" d="M 120.5,114.5 C 120.262,116.404 119.262,117.738 117.5,118.5C 117.738,116.596 118.738,115.262 120.5,114.5 Z"/></g>
<g><path style="opacity:0.29" fill="#b2707d" d="M 468.5,118.5 C 469.906,118.973 470.573,119.973 470.5,121.5C 469.094,121.027 468.427,120.027 468.5,118.5 Z"/></g>
<g><path style="opacity:0.706" fill="#ae5d6a" d="M 392.5,121.5 C 394.5,121.5 395.5,122.5 395.5,124.5C 394.167,123.833 393.167,122.833 392.5,121.5 Z"/></g>
<g><path style="opacity:0.882" fill="#ae5763" d="M 34.5,118.5 C 34.2639,121.621 32.9305,123.954 30.5,125.5C 31.0787,122.669 32.412,120.336 34.5,118.5 Z"/></g>
<g><path style="opacity:0.071" fill="#c18a94" d="M 107.5,122.5 C 107.573,124.027 106.906,125.027 105.5,125.5C 105.427,123.973 106.094,122.973 107.5,122.5 Z"/></g>
<g><path style="opacity:0.337" fill="#bf8893" d="M 107.5,122.5 C 107.56,121.957 107.893,121.624 108.5,121.5C 109.001,123.655 110.001,125.322 111.5,126.5C 110.828,127.267 109.995,127.934 109,128.5C 108.809,126.292 108.309,124.292 107.5,122.5 Z"/></g>
<g><path style="opacity:0.02" fill="#bf9199" d="M 395.5,124.5 C 397.262,125.262 398.262,126.596 398.5,128.5C 396.738,127.738 395.738,126.404 395.5,124.5 Z"/></g>
<g><path style="opacity:0.212" fill="#b67c88" d="M 471.5,123.5 C 472.906,123.973 473.573,124.973 473.5,126.5C 472.094,126.027 471.427,125.027 471.5,123.5 Z"/></g>
<g><path style="opacity:0.02" fill="#c4929b" d="M 103.5,127.5 C 103.5,128.833 102.833,129.5 101.5,129.5C 101.833,128.5 102.5,127.833 103.5,127.5 Z"/></g>
<g><path style="opacity:0.863" fill="#b15e69" d="M 30.5,125.5 C 30.4077,127.848 29.4077,129.514 27.5,130.5C 27.7497,128.326 28.7497,126.659 30.5,125.5 Z"/></g>
<g><path style="opacity:0.369" fill="#b87c87" d="M 398.5,128.5 C 400.531,129.539 401.864,131.205 402.5,133.5C 400.457,132.421 399.124,130.754 398.5,128.5 Z"/></g>
<g><path style="opacity:0.467" fill="#bc8792" d="M 337.5,133.5 C 331.797,133.375 326.13,133.708 320.5,134.5C 323.526,132.981 326.859,132.315 330.5,132.5C 333.025,132.503 335.359,132.837 337.5,133.5 Z"/></g>
<g><path style="opacity:0.192" fill="#bd8b95" d="M 339.5,133.5 C 341.674,133.75 343.341,134.75 344.5,136.5C 342.326,136.25 340.659,135.25 339.5,133.5 Z"/></g>
<g><path style="opacity:0.886" fill="#a74755" d="M 27.5,130.5 C 27.7083,134.085 26.375,136.751 23.5,138.5C 24.3257,135.515 25.659,132.849 27.5,130.5 Z"/></g>
<g><path style="opacity:0.424" fill="#be8691" d="M 185.5,134.5 C 178.351,134.05 171.351,134.716 164.5,136.5C 165.347,135.034 166.68,134.2 168.5,134C 174.369,131.895 180.035,132.061 185.5,134.5 Z"/></g>
<g><path style="opacity:1" fill="#8d0420" d="M 337.5,133.5 C 338.167,133.5 338.833,133.5 339.5,133.5C 340.659,135.25 342.326,136.25 344.5,136.5C 346.941,142.003 348.608,147.67 349.5,153.5C 348.103,210.67 348.436,267.67 350.5,324.5C 350.711,333.2 350.377,341.867 349.5,350.5C 349.34,352.153 348.674,353.486 347.5,354.5C 345.833,355.5 344.5,356.833 343.5,358.5C 343.082,359.222 342.416,359.722 341.5,360C 336.316,360.816 331.316,360.65 326.5,359.5C 324.478,357.307 321.811,356.307 318.5,356.5C 316.176,353.862 314.343,350.862 313,347.5C 312.5,338.173 312.334,328.839 312.5,319.5C 313.496,303.342 313.83,287.009 313.5,270.5C 313.5,268.167 313.5,265.833 313.5,263.5C 279.172,264.275 244.839,264.608 210.5,264.5C 204.69,263.51 198.69,263.177 192.5,263.5C 192.333,281.503 192.5,299.503 193,317.5C 193.383,318.056 193.883,318.389 194.5,318.5C 195.987,328.438 196.653,338.438 196.5,348.5C 194.885,351.45 192.885,354.116 190.5,356.5C 188.973,356.427 187.973,357.094 187.5,358.5C 187.158,359.338 186.492,359.672 185.5,359.5C 178.681,359.871 172.014,359.205 165.5,357.5C 160.544,351.323 157.878,344.323 157.5,336.5C 157.9,306.981 157.234,277.648 155.5,248.5C 154.167,231.5 154.167,214.5 155.5,197.5C 155.833,197.5 156.167,197.5 156.5,197.5C 157.62,178.651 158.62,159.651 159.5,140.5C 160.833,139.833 161.833,138.833 162.5,137.5C 162.842,136.662 163.508,136.328 164.5,136.5C 171.351,134.716 178.351,134.05 185.5,134.5C 187.181,136.008 189.181,137.008 191.5,137.5C 191.738,139.404 192.738,140.738 194.5,141.5C 194.407,161.172 194.074,180.838 193.5,200.5C 193.334,210.839 193.5,221.172 194,231.5C 198.317,233.148 202.817,233.814 207.5,233.5C 207.833,233.5 208.167,233.5 208.5,233.5C 209.952,234.302 211.618,234.802 213.5,235C 218.823,235.499 224.156,235.666 229.5,235.5C 250.689,236.547 272.023,236.214 293.5,234.5C 299.59,234.487 305.59,233.82 311.5,232.5C 312.832,223.692 313.498,214.525 313.5,205C 313.5,195.66 313.166,186.494 312.5,177.5C 312.254,165.803 312.587,154.136 313.5,142.5C 315.833,139.833 318.167,137.167 320.5,134.5C 326.13,133.708 331.797,133.375 337.5,133.5 Z"/></g>
<g><path style="opacity:0.18" fill="#c3939d" d="M 185.5,134.5 C 188.089,134.461 190.089,135.461 191.5,137.5C 189.181,137.008 187.181,136.008 185.5,134.5 Z"/></g>
<g><path style="opacity:0.447" fill="#b9808b" d="M 404.5,137.5 C 406.5,137.5 407.5,138.5 407.5,140.5C 406.167,139.833 405.167,138.833 404.5,137.5 Z"/></g>
<g><path style="opacity:0.561" fill="#b87682" d="M 191.5,137.5 C 193.262,138.262 194.262,139.596 194.5,141.5C 192.738,140.738 191.738,139.404 191.5,137.5 Z"/></g>
<g><path style="opacity:0.745" fill="#b06371" d="M 320.5,134.5 C 318.167,137.167 315.833,139.833 313.5,142.5C 313.167,142.5 312.833,142.5 312.5,142.5C 314.167,138.833 316.833,136.167 320.5,134.5 Z"/></g>
<g><path style="opacity:0.027" fill="#c698a1" d="M 95.5,138.5 C 95.573,140.027 94.9063,141.027 93.5,141.5C 93.427,139.973 94.0937,138.973 95.5,138.5 Z"/></g>
<g><path style="opacity:0.251" fill="#bf8994" d="M 162.5,137.5 C 161.833,138.833 160.833,139.833 159.5,140.5C 159.5,138.5 160.5,137.5 162.5,137.5 Z"/></g>
<g><path style="opacity:0.839" fill="#ab4e5d" d="M 23.5,138.5 C 23.7083,142.085 22.375,144.751 19.5,146.5C 20.3257,143.515 21.659,140.849 23.5,138.5 Z"/></g>
<g><path style="opacity:0.118" fill="#c4919b" d="M 93.5,141.5 C 93.573,143.027 92.9063,144.027 91.5,144.5C 91.427,142.973 92.0937,141.973 93.5,141.5 Z"/></g>
<g><path style="opacity:1" fill="#a64956" d="M 344.5,136.5 C 347.883,139.289 349.55,142.955 349.5,147.5C 349.5,149.5 349.5,151.5 349.5,153.5C 348.608,147.67 346.941,142.003 344.5,136.5 Z"/></g>
<g><path style="opacity:0.188" fill="#c18a94" d="M 91.5,144.5 C 91.2503,146.674 90.2503,148.341 88.5,149.5C 88.7497,147.326 89.7497,145.659 91.5,144.5 Z"/></g>
<g><path style="opacity:0.529" fill="#b87480" d="M 194.5,141.5 C 195.268,142.263 195.768,143.263 196,144.5C 196.259,163.339 195.759,182.006 194.5,200.5C 194.167,200.5 193.833,200.5 193.5,200.5C 194.074,180.838 194.407,161.172 194.5,141.5 Z"/></g>
<g><path style="opacity:1" fill="#a54a56" d="M 479.5,138.5 C 480.481,140.309 481.981,141.643 484,142.5C 484.847,144.854 485.68,147.188 486.5,149.5C 484.226,148.02 482.892,145.853 482.5,143C 481.552,142.517 480.552,142.351 479.5,142.5C 479.5,141.167 479.5,139.833 479.5,138.5 Z"/></g>
<g><path style="opacity:0.316" fill="#bb838e" d="M 311.5,146.5 C 311.172,157.014 311.506,167.347 312.5,177.5C 312.83,195.674 312.497,213.674 311.5,231.5C 311.07,202.995 311.07,174.662 311.5,146.5 Z"/></g>
<g><path style="opacity:0.941" fill="#98253a" d="M 312.5,142.5 C 312.833,142.5 313.167,142.5 313.5,142.5C 312.587,154.136 312.254,165.803 312.5,177.5C 311.506,167.347 311.172,157.014 311.5,146.5C 311.232,144.901 311.566,143.568 312.5,142.5 Z"/></g>
<g><path style="opacity:0.753" fill="#ac5c6a" d="M 486.5,149.5 C 488.065,151.509 489.065,153.843 489.5,156.5C 487.166,154.824 486.166,152.491 486.5,149.5 Z"/></g>
<g><path style="opacity:1" fill="#a33f4b" d="M 19.5,146.5 C 19.7645,150.653 18.4312,153.987 15.5,156.5C 16.3208,152.873 17.6541,149.54 19.5,146.5 Z"/></g>
<g><path style="opacity:0.078" fill="#c497a0" d="M 157.5,145.5 C 156.604,162.815 156.271,180.148 156.5,197.5C 156.167,197.5 155.833,197.5 155.5,197.5C 155.333,182.163 155.5,166.83 156,151.5C 156.191,149.292 156.691,147.292 157.5,145.5 Z"/></g>
<g><path style="opacity:0.188" fill="#c28e98" d="M 87.5,151.5 C 86.9213,154.331 85.588,156.664 83.5,158.5C 84.0787,155.669 85.412,153.336 87.5,151.5 Z"/></g>
<g><path style="opacity:0.373" fill="#b57682" d="M 407.5,141.5 C 408.376,141.369 409.043,141.702 409.5,142.5C 409.964,146.038 411.464,149.038 414,151.5C 414.595,152.899 414.428,154.232 413.5,155.5C 414.833,156.167 416.167,156.833 417.5,157.5C 416.128,159.62 416.795,160.62 419.5,160.5C 419.5,161.5 419.5,162.5 419.5,163.5C 420.5,163.5 421.5,163.5 422.5,163.5C 422.5,165.833 422.5,168.167 422.5,170.5C 423.494,171.999 423.494,173.666 422.5,175.5C 421.221,173.877 419.887,172.21 418.5,170.5C 419.325,169.614 420.325,169.281 421.5,169.5C 421.5,167.833 421.5,166.167 421.5,164.5C 420.5,164.5 419.5,164.5 418.5,164.5C 418.649,163.448 418.483,162.448 418,161.5C 414.94,162.602 414.107,161.602 415.5,158.5C 411.454,157.606 410.787,155.773 413.5,153C 411.833,150.667 410.167,148.333 408.5,146C 408.833,145.667 409.167,145.333 409.5,145C 408.695,143.887 408.028,142.721 407.5,141.5 Z"/></g>
<g><path style="opacity:0.812" fill="#b66976" d="M 15.5,156.5 C 15.2299,160.358 13.8966,163.691 11.5,166.5C 12.2667,162.851 13.6001,159.518 15.5,156.5 Z"/></g>
<g><path style="opacity:0.588" fill="#b06976" d="M 489.5,156.5 C 490.871,158.936 491.871,161.603 492.5,164.5C 490.345,162.383 489.345,159.716 489.5,156.5 Z"/></g>
<g><path style="opacity:0.235" fill="#bf848f" d="M 83.5,159.5 C 82.6766,162.48 81.3433,165.147 79.5,167.5C 79.8294,164.173 81.1627,161.507 83.5,159.5 Z"/></g>
<g><path style="opacity:0.667" fill="#b86e7b" d="M 11.5,167.5 C 11.2766,171.162 10.2766,174.495 8.5,177.5C 8.7234,173.838 9.7234,170.505 11.5,167.5 Z"/></g>
<g><path style="opacity:0.447" fill="#ae606e" d="M 492.5,165.5 C 494.074,167.102 494.741,169.102 494.5,171.5C 492.926,169.898 492.259,167.898 492.5,165.5 Z"/></g>
<g><path style="opacity:0.608" fill="#af6774" d="M 494.5,171.5 C 495.738,173.214 496.405,175.214 496.5,177.5C 494.926,175.898 494.259,173.898 494.5,171.5 Z"/></g>
<g><path style="opacity:0.165" fill="#c6969f" d="M 77.5,172.5 C 77.5979,174.553 76.9313,176.22 75.5,177.5C 75.4021,175.447 76.0687,173.78 77.5,172.5 Z"/></g>
<g><path style="opacity:0.294" fill="#c48f99" d="M 75.5,177.5 C 75.0719,180.785 74.0719,183.785 72.5,186.5C 72.5275,183.084 73.5275,180.084 75.5,177.5 Z"/></g>
<g><path style="opacity:0.086" fill="#bd8d96" d="M 422.5,176.5 C 423.924,178.515 424.59,180.848 424.5,183.5C 423.076,181.485 422.41,179.152 422.5,176.5 Z"/></g>
<g><path style="opacity:0.239" fill="#b47681" d="M 496.5,177.5 C 497.924,179.515 498.59,181.848 498.5,184.5C 497.076,182.485 496.41,180.152 496.5,177.5 Z"/></g>
<g><path style="opacity:0.97" fill="#961e35" d="M 159.5,140.5 C 158.62,159.651 157.62,178.651 156.5,197.5C 156.271,180.148 156.604,162.815 157.5,145.5C 157.402,143.447 158.069,141.78 159.5,140.5 Z"/></g>
<g><path style="opacity:0.337" fill="#c18792" d="M 72.5,186.5 C 70.4579,194.27 68.4579,201.936 66.5,209.5C 66.9046,201.308 68.9046,193.641 72.5,186.5 Z"/></g>
<g><path style="opacity:0.77" fill="#9d3046" d="M 312.5,177.5 C 313.166,186.494 313.5,195.66 313.5,205C 313.498,214.525 312.832,223.692 311.5,232.5C 311.5,232.167 311.5,231.833 311.5,231.5C 312.497,213.674 312.83,195.674 312.5,177.5 Z"/></g>
<g><path style="opacity:0.859" fill="#b05968" d="M 7.5,186.5 C 7.66409,189.187 7.49742,191.854 7,194.5C 6.61742,195.056 6.11742,195.389 5.5,195.5C 5.67615,192.273 6.34281,189.273 7.5,186.5 Z"/></g>
<g><path style="opacity:0.902" fill="#a64d5b" d="M 500.5,194.5 C 502.118,199.256 503.118,204.256 503.5,209.5C 500.982,204.939 499.982,199.939 500.5,194.5 Z"/></g>
<g><path style="opacity:0.482" fill="#b16874" d="M 425.5,186.5 C 426.496,186.414 427.329,186.748 428,187.5C 429.123,192.127 430.956,196.46 433.5,200.5C 430.687,205.765 431.354,210.599 435.5,215C 435.43,215.765 435.097,216.265 434.5,216.5C 433.36,214.22 432.193,211.886 431,209.5C 430.785,206.144 430.785,202.811 431,199.5C 428.547,195.366 426.713,191.033 425.5,186.5 Z"/></g>
<g><path style="opacity:0.918" fill="#b46471" d="M 4.5,201.5 C 4.938,207.871 3.938,213.871 1.5,219.5C 1.77082,213.25 2.77082,207.25 4.5,201.5 Z"/></g>
<g><path style="opacity:0.361" fill="#b97e89" d="M 349.5,147.5 C 350.206,206.341 350.873,265.341 351.5,324.5C 351.167,324.5 350.833,324.5 350.5,324.5C 348.436,267.67 348.103,210.67 349.5,153.5C 349.5,151.5 349.5,149.5 349.5,147.5 Z"/></g>
<g><path style="opacity:0.557" fill="#a7475a" d="M 21.5,233.5 C 21.8128,229.958 21.4794,226.625 20.5,223.5C 20.7713,221.688 21.438,220.022 22.5,218.5C 22.8333,219.167 23.1667,219.833 23.5,220.5C 22.9488,224.992 22.2821,229.326 21.5,233.5 Z"/></g>
<g><path style="opacity:0.171" fill="#bf8993" d="M 193.5,200.5 C 193.833,200.5 194.167,200.5 194.5,200.5C 194.334,210.506 194.5,220.506 195,230.5C 199.203,231.785 203.37,232.785 207.5,233.5C 202.817,233.814 198.317,233.148 194,231.5C 193.5,221.172 193.334,210.839 193.5,200.5 Z"/></g>
<g><path style="opacity:0.237" fill="#c3909b" d="M 60.5,236.5 C 60.0276,234.469 59.0276,232.802 57.5,231.5C 57.9081,230.357 58.5748,229.357 59.5,228.5C 60.48,231.086 60.8134,233.753 60.5,236.5 Z"/></g>
<g><path style="opacity:0.078" fill="#c38e98" d="M 63.5,225.5 C 63.9166,229.817 63.2499,233.817 61.5,237.5C 61.8509,233.316 62.5176,229.316 63.5,225.5 Z"/></g>
<g><path style="opacity:0.718" fill="#b46d79" d="M 311.5,231.5 C 311.5,231.833 311.5,232.167 311.5,232.5C 305.59,233.82 299.59,234.487 293.5,234.5C 293.5,234.167 293.5,233.833 293.5,233.5C 299.322,232.511 305.322,231.844 311.5,231.5 Z"/></g>
<g><path style="opacity:0.294" fill="#ba7b88" d="M 208.5,233.5 C 215.476,234.232 222.476,234.565 229.5,234.5C 229.5,234.833 229.5,235.167 229.5,235.5C 224.156,235.666 218.823,235.499 213.5,235C 211.618,234.802 209.952,234.302 208.5,233.5 Z"/></g>
<g><path style="opacity:0.456" fill="#bd828d" d="M 293.5,233.5 C 293.5,233.833 293.5,234.167 293.5,234.5C 272.023,236.214 250.689,236.547 229.5,235.5C 229.5,235.167 229.5,234.833 229.5,234.5C 250.842,234.592 272.175,234.259 293.5,233.5 Z"/></g>
<g><path style="opacity:0.439" fill="#c797a0" d="M 70.5,245.5 C 70.6633,243.143 70.4966,240.81 70,238.5C 69.6174,239.056 69.1174,239.389 68.5,239.5C 68.5246,236.821 69.858,235.488 72.5,235.5C 72.1006,239.011 71.4339,242.344 70.5,245.5 Z"/></g>
<g><path style="opacity:0.184" fill="#c89ba5" d="M 57.5,231.5 C 57.3335,243.838 57.5001,256.171 58,268.5C 58.21,270.058 58.71,271.391 59.5,272.5C 59.6309,273.376 59.2975,274.043 58.5,274.5C 57.7189,273.271 57.2189,271.938 57,270.5C 56.1731,257.327 56.3398,244.327 57.5,231.5 Z"/></g>
<g><path style="opacity:0.222" fill="#b77a86" d="M 437.5,222.5 C 437.896,229.066 438.229,235.899 438.5,243C 438,254.5 437.5,266 437,277.5C 436.232,281.783 435.066,285.783 433.5,289.5C 434.825,286.531 434.825,283.531 433.5,280.5C 434.083,278.998 434.916,277.665 436,276.5C 436.428,265.83 436.928,255.163 437.5,244.5C 437.587,239.228 436.921,234.061 435.5,229C 436.096,226.775 436.763,224.608 437.5,222.5 Z"/></g>
<g><path style="opacity:0.401" fill="#bb7683" d="M 20.5,223.5 C 21.4794,226.625 21.8128,229.958 21.5,233.5C 21.6267,248.527 22.2934,263.527 23.5,278.5C 21.4271,267.917 20.0937,257.25 19.5,246.5C 19.5,245.5 19.5,244.5 19.5,243.5C 20.8333,240.5 20.8333,237.5 19.5,234.5C 19.423,230.785 19.7564,227.119 20.5,223.5 Z"/></g>
<g><path style="opacity:0.722" fill="#a94b5c" d="M 70.5,245.5 C 68.5977,248.337 67.931,251.671 68.5,255.5C 68.5,257.833 68.5,260.167 68.5,262.5C 68.1667,262.5 67.8333,262.5 67.5,262.5C 67.8195,257.637 67.4861,252.97 66.5,248.5C 66.5,247.5 66.5,246.5 66.5,245.5C 66.2594,243.102 66.9261,241.102 68.5,239.5C 69.1174,239.389 69.6174,239.056 70,238.5C 70.4966,240.81 70.6633,243.143 70.5,245.5 Z"/></g>
<g><path style="opacity:0.061" fill="#d0b1b8" d="M 70.5,245.5 C 69.9035,248.941 69.2368,252.275 68.5,255.5C 67.931,251.671 68.5977,248.337 70.5,245.5 Z"/></g>
<g><path style="opacity:0.124" fill="#c4929c" d="M 66.5,245.5 C 66.5,246.5 66.5,247.5 66.5,248.5C 65.8826,248.611 65.3826,248.944 65,249.5C 64.6667,254.833 64.3333,260.167 64,265.5C 63.7216,266.416 63.2216,267.082 62.5,267.5C 63.2065,261.2 63.7065,254.867 64,248.5C 64.8518,247.429 65.6851,246.429 66.5,245.5 Z"/></g>
<g><path style="opacity:0.716" fill="#b26673" d="M 313.5,270.5 C 312.833,268.5 312.167,266.5 311.5,264.5C 299.246,265.512 286.912,266.178 274.5,266.5C 249.001,265.97 223.667,265.303 198.5,264.5C 202.5,264.5 206.5,264.5 210.5,264.5C 244.839,264.608 279.172,264.275 313.5,263.5C 313.5,265.833 313.5,268.167 313.5,270.5 Z"/></g>
<g><path style="opacity:0.545" fill="#b25f70" d="M 16.5,277.5 C 15.596,278.209 15.2627,279.209 15.5,280.5C 14.3592,277.36 14.1925,274.027 15,270.5C 16.2022,272.677 16.7022,275.011 16.5,277.5 Z"/></g>
<g><path style="opacity:0.726" fill="#b9737e" d="M 155.5,248.5 C 157.234,277.648 157.9,306.981 157.5,336.5C 155.943,307.348 155.276,278.014 155.5,248.5 Z"/></g>
<g><path style="opacity:0.371" fill="#c08591" d="M 67.5,262.5 C 67.8333,262.5 68.1667,262.5 68.5,262.5C 67.6693,266.476 67.5027,270.476 68,274.5C 69.0113,273.663 70.1779,273.33 71.5,273.5C 71.5,275.167 71.5,276.833 71.5,278.5C 70.71,277.391 70.21,276.058 70,274.5C 69.8142,276.9 69.3142,279.234 68.5,281.5C 67.8182,280.757 67.1515,280.091 66.5,279.5C 66.1778,273.642 66.5111,267.975 67.5,262.5 Z"/></g>
<g><path style="opacity:0.212" fill="#c38a95" d="M 19.5,269.5 C 20.4881,274.64 20.8214,279.974 20.5,285.5C 19.5,285.5 18.5,285.5 17.5,285.5C 17.6458,289.519 17.9791,293.519 18.5,297.5C 17.7784,297.082 17.2784,296.416 17,295.5C 16.4625,290.829 15.9625,286.162 15.5,281.5C 16.4345,280.432 16.7678,279.099 16.5,277.5C 17.4691,279.663 18.3024,281.996 19,284.5C 19.4993,279.511 19.6659,274.511 19.5,269.5 Z"/></g>
<g><path style="opacity:1" fill="#9c2c3f" d="M 71.5,278.5 C 71.8064,281.385 71.4731,284.052 70.5,286.5C 69.71,285.391 69.21,284.058 69,282.5C 68.586,282.957 68.086,283.291 67.5,283.5C 66.5713,282.311 66.238,280.978 66.5,279.5C 67.1515,280.091 67.8182,280.757 68.5,281.5C 69.3142,279.234 69.8142,276.9 70,274.5C 70.21,276.058 70.71,277.391 71.5,278.5 Z"/></g>
<g><path style="opacity:0.557" fill="#be7f8b" d="M 71.5,278.5 C 72.1826,284.416 72.5159,290.416 72.5,296.5C 71.7784,296.082 71.2784,295.416 71,294.5C 70.5026,291.854 70.3359,289.187 70.5,286.5C 71.4731,284.052 71.8064,281.385 71.5,278.5 Z"/></g>
<g><path style="opacity:0.049" fill="#c6a2a9" d="M 311.5,264.5 C 312.167,266.5 312.833,268.5 313.5,270.5C 313.83,287.009 313.496,303.342 312.5,319.5C 312.736,301.148 312.402,282.815 311.5,264.5 Z"/></g>
<g><path style="opacity:0.912" fill="#972037" d="M 210.5,264.5 C 206.5,264.5 202.5,264.5 198.5,264.5C 197.5,264.5 196.5,264.5 195.5,264.5C 194.169,272.138 193.502,280.138 193.5,288.5C 193.542,297.532 193.875,306.532 194.5,315.5C 194.5,316.5 194.5,317.5 194.5,318.5C 193.883,318.389 193.383,318.056 193,317.5C 192.5,299.503 192.333,281.503 192.5,263.5C 198.69,263.177 204.69,263.51 210.5,264.5 Z"/></g>
<g><path style="opacity:0.327" fill="#bd828e" d="M 195.5,264.5 C 194.61,281.512 194.61,298.512 195.5,315.5C 195.167,315.5 194.833,315.5 194.5,315.5C 193.875,306.532 193.542,297.532 193.5,288.5C 193.502,280.138 194.169,272.138 195.5,264.5 Z"/></g>
<g><path style="opacity:0.925" fill="#b56572" d="M 24.5,284.5 C 25.1174,284.611 25.6174,284.944 26,285.5C 27.0202,291.187 28.8535,296.52 31.5,301.5C 30.5041,301.586 29.6708,301.252 29,300.5C 26.5825,295.416 25.0825,290.082 24.5,284.5 Z"/></g>
<g><path style="opacity:0.855" fill="#aa5461" d="M 432.5,291.5 C 432.883,296.343 432.217,301.009 430.5,305.5C 428.925,306.456 427.258,307.123 425.5,307.5C 427.307,306.164 428.807,304.497 430,302.5C 430.242,298.57 431.075,294.903 432.5,291.5 Z"/></g>
<g><path style="opacity:0.012" fill="#b4727e" d="M 502.5,291.5 C 501.706,298.825 500.039,305.825 497.5,312.5C 498.837,305.967 500.004,299.3 501,292.5C 501.383,291.944 501.883,291.611 502.5,291.5 Z"/></g>
<g><path style="opacity:0.125" fill="#ca9da6" d="M 31.5,301.5 C 32.9313,302.78 33.5979,304.447 33.5,306.5C 32.0687,305.22 31.4021,303.553 31.5,301.5 Z"/></g>
<g><path style="opacity:0.902" fill="#b96e79" d="M 6.5,297.5 C 10.7051,305.604 13.7051,314.271 15.5,323.5C 11.4149,315.304 8.41486,306.637 6.5,297.5 Z"/></g>
<g><path style="opacity:0.412" fill="#be7c88" d="M 19.5,304.5 C 21.1628,306.438 21.8294,308.772 21.5,311.5C 20.0762,309.485 19.4095,307.152 19.5,304.5 Z"/></g>
<g><path style="opacity:0.2" fill="#c28994" d="M 34.5,308.5 C 36.2451,310.033 37.2451,312.033 37.5,314.5C 37.5,314.833 37.5,315.167 37.5,315.5C 35.9348,313.491 34.9348,311.157 34.5,308.5 Z"/></g>
<g><path style="opacity:0.502" fill="#bd7d8a" d="M 21.5,311.5 C 22.9238,313.515 23.5905,315.848 23.5,318.5C 22.0762,316.485 21.4095,314.152 21.5,311.5 Z"/></g>
<g><path style="opacity:1" fill="#b56670" d="M 73.5,301.5 C 74.0182,307.819 75.0182,314.152 76.5,320.5C 75.8501,320.196 75.1835,319.863 74.5,319.5C 73.5041,313.537 73.1707,307.537 73.5,301.5 Z"/></g>
<g><path style="opacity:0.961" fill="#a64a58" d="M 425.5,307.5 C 425.812,311.675 425.145,315.675 423.5,319.5C 423.043,320.298 422.376,320.631 421.5,320.5C 423.272,316.191 424.606,311.858 425.5,307.5 Z"/></g>
<g><path style="opacity:0.055" fill="#bb8892" d="M 496.5,316.5 C 496.59,319.152 495.924,321.485 494.5,323.5C 494.41,320.848 495.076,318.515 496.5,316.5 Z"/></g>
<g><path style="opacity:0.647" fill="#c0828d" d="M 23.5,318.5 C 25.6098,322.502 26.9431,326.835 27.5,331.5C 25.3902,327.498 24.0569,323.165 23.5,318.5 Z"/></g>
<g><path style="opacity:1" fill="#b15c68" d="M 37.5,314.5 C 39.5717,317.774 41.5717,321.274 43.5,325C 44.4062,327.791 45.0728,330.624 45.5,333.5C 42.3224,327.804 39.6557,321.804 37.5,315.5C 37.5,315.167 37.5,314.833 37.5,314.5 Z"/></g>
<g><path style="opacity:0.741" fill="#b9717e" d="M 76.5,320.5 C 79.7149,325.997 81.7149,331.997 82.5,338.5C 79.9222,332.767 77.9222,326.767 76.5,320.5 Z"/></g>
<g><path style="opacity:0.871" fill="#b16673" d="M 421.5,320.5 C 421.408,322.848 420.408,324.514 418.5,325.5C 418.75,323.326 419.75,321.659 421.5,320.5 Z"/></g>
<g><path style="opacity:0.78" fill="#ad5b66" d="M 494.5,323.5 C 494.405,325.786 493.738,327.786 492.5,329.5C 492.025,326.918 492.692,324.918 494.5,323.5 Z"/></g>
<g><path style="opacity:0.267" fill="#c38a95" d="M 15.5,323.5 C 16.4728,324.791 17.4728,324.791 18.5,323.5C 19.2975,323.957 19.6309,324.624 19.5,325.5C 17.2457,328.004 15.9124,327.337 15.5,323.5 Z"/></g>
<g><path style="opacity:0.423" fill="#bc818c" d="M 350.5,324.5 C 350.833,324.5 351.167,324.5 351.5,324.5C 352.474,330.472 352.641,336.472 352,342.5C 351.721,345.457 350.887,348.123 349.5,350.5C 350.377,341.867 350.711,333.2 350.5,324.5 Z"/></g>
<g><path style="opacity:0.749" fill="#b6737f" d="M 418.5,325.5 C 417.534,328.469 415.867,330.802 413.5,332.5C 414.594,330.641 415.427,328.641 416,326.5C 416.671,325.748 417.504,325.414 418.5,325.5 Z"/></g>
<g><path style="opacity:0.294" fill="#bf7f8b" d="M 20.5,327.5 C 22.4484,329.32 23.4484,331.654 23.5,334.5C 21.7073,332.574 20.7073,330.241 20.5,327.5 Z"/></g>
<g><path style="opacity:0.314" fill="#b3717e" d="M 492.5,329.5 C 492.598,331.553 491.931,333.22 490.5,334.5C 490.402,332.447 491.069,330.78 492.5,329.5 Z"/></g>
<g><path style="opacity:0.273" fill="#bf8c96" d="M 312.5,319.5 C 312.334,328.839 312.5,338.173 313,347.5C 314.343,350.862 316.176,353.862 318.5,356.5C 316.983,356.489 315.816,355.823 315,354.5C 314,352.5 313,350.5 312,348.5C 311.175,338.658 311.342,328.991 312.5,319.5 Z"/></g>
<g><path style="opacity:0.655" fill="#bc747f" d="M 27.5,331.5 C 29.2927,333.426 30.2927,335.759 30.5,338.5C 28.1663,336.824 27.1663,334.491 27.5,331.5 Z"/></g>
<g><path style="opacity:0.566" fill="#b26371" d="M 157.5,336.5 C 157.878,344.323 160.544,351.323 165.5,357.5C 162.909,356.746 161.076,355.079 160,352.5C 157.92,347.37 157.087,342.037 157.5,336.5 Z"/></g>
<g><path style="opacity:0.275" fill="#bf8e98" d="M 412.5,334.5 C 412.573,336.027 411.906,337.027 410.5,337.5C 410.427,335.973 411.094,334.973 412.5,334.5 Z"/></g>
<g><path style="opacity:0.384" fill="#b9717e" d="M 24.5,336.5 C 26.539,337.911 27.539,339.911 27.5,342.5C 25.9925,340.819 24.9925,338.819 24.5,336.5 Z"/></g>
<g><path style="opacity:0.231" fill="#c0818d" d="M 47.5,337.5 C 49.2503,338.659 50.2503,340.326 50.5,342.5C 48.7497,341.341 47.7497,339.674 47.5,337.5 Z"/></g>
<g><path style="opacity:0.518" fill="#c28792" d="M 30.5,338.5 C 31.5375,339.93 32.2041,341.597 32.5,343.5C 30.7868,342.365 30.1201,340.698 30.5,338.5 Z"/></g>
<g><path style="opacity:0.537" fill="#b46e7b" d="M 410.5,337.5 C 408.542,340.792 406.209,343.792 403.5,346.5C 404.694,342.637 407.027,339.637 410.5,337.5 Z"/></g>
<g><path style="opacity:0.507" fill="#b46a78" d="M 194.5,315.5 C 194.833,315.5 195.167,315.5 195.5,315.5C 197.005,326.423 197.672,337.423 197.5,348.5C 197.167,348.5 196.833,348.5 196.5,348.5C 196.653,338.438 195.987,328.438 194.5,318.5C 194.5,317.5 194.5,316.5 194.5,315.5 Z"/></g>
<g><path style="opacity:0.333" fill="#ac5a65" d="M 489.5,337.5 C 488.345,341.797 486.679,345.797 484.5,349.5C 484.192,347.076 484.526,344.743 485.5,342.5C 486.689,340.637 488.022,338.97 489.5,337.5 Z"/></g>
<g><path style="opacity:0.584" fill="#ba7380" d="M 82.5,338.5 C 84.5376,342.94 86.2042,347.607 87.5,352.5C 84.6761,348.37 83.0094,343.703 82.5,338.5 Z"/></g>
<g><path style="opacity:0.659" fill="#bf7c87" d="M 32.5,343.5 C 33.5375,344.93 34.2041,346.597 34.5,348.5C 32.7868,347.365 32.1201,345.698 32.5,343.5 Z"/></g>
<g><path style="opacity:0.706" fill="#b56773" d="M 50.5,342.5 C 53.4835,345.115 55.4835,348.448 56.5,352.5C 54.0002,349.506 52.0002,346.173 50.5,342.5 Z"/></g>
<g><path style="opacity:0.741" fill="#b46471" d="M 97.5,347.5 C 96.5028,347.47 95.8361,347.97 95.5,349C 96.3195,350.8 96.9862,352.634 97.5,354.5C 94.0267,350.897 92.86,346.564 94,341.5C 95.9473,343.063 97.114,345.063 97.5,347.5 Z"/></g>
<g><path style="opacity:0.404" fill="#bb7482" d="M 27.5,342.5 C 29.6246,345.088 30.9579,348.088 31.5,351.5C 29.3754,348.912 28.0421,345.912 27.5,342.5 Z"/></g>
<g><path style="opacity:0.373" fill="#ab5768" d="M 422.5,353.5 C 422.5,352.833 422.167,352.5 421.5,352.5C 425.257,346.65 429.257,340.983 433.5,335.5C 434.041,337.523 433.541,339.523 432,341.5C 428.589,345.399 425.422,349.399 422.5,353.5 Z"/></g>
<g><path style="opacity:0.557" fill="#b67682" d="M 402.5,347.5 C 402.628,349.655 402.128,351.655 401,353.5C 397.998,357.668 394.498,361.335 390.5,364.5C 394.76,358.966 398.76,353.3 402.5,347.5 Z"/></g>
<g><path style="opacity:0.682" fill="#bd7a86" d="M 34.5,348.5 C 36.0652,350.509 37.0652,352.843 37.5,355.5C 35.1663,353.824 34.1663,351.491 34.5,348.5 Z"/></g>
<g><path style="opacity:0.333" fill="#b26d7b" d="M 484.5,350.5 C 484.068,351.71 483.401,352.71 482.5,353.5C 482.285,351.821 482.952,350.821 484.5,350.5 Z"/></g>
<g><path style="opacity:0.204" fill="#c28893" d="M 31.5,351.5 C 32.6737,352.514 33.3404,353.847 33.5,355.5C 31.8958,354.713 31.2291,353.38 31.5,351.5 Z"/></g>
<g><path style="opacity:0.973" fill="#9c2e3c" d="M 97.5,347.5 C 98.3382,347.842 98.6716,348.508 98.5,349.5C 98.6775,350.695 99.0109,351.862 99.5,353C 99.1639,354.03 98.4972,354.53 97.5,354.5C 96.9862,352.634 96.3195,350.8 95.5,349C 95.8361,347.97 96.5028,347.47 97.5,347.5 Z"/></g>
<g><path style="opacity:0.047" fill="#c4929c" d="M 196.5,348.5 C 196.833,348.5 197.167,348.5 197.5,348.5C 196.569,352.429 194.236,355.095 190.5,356.5C 192.885,354.116 194.885,351.45 196.5,348.5 Z"/></g>
<g><path style="opacity:0.053" fill="#be8b94" d="M 421.5,352.5 C 422.167,352.5 422.5,352.833 422.5,353.5C 421.649,355.882 420.316,357.882 418.5,359.5C 418.5,358.833 418.5,358.167 418.5,357.5C 419.833,357.167 419.833,356.833 418.5,356.5C 418.738,354.596 419.738,353.262 421.5,352.5 Z"/></g>
<g><path style="opacity:0.42" fill="#bb7481" d="M 56.5,352.5 C 58.4456,353.035 59.4456,354.368 59.5,356.5C 58.0256,355.564 57.0256,354.23 56.5,352.5 Z"/></g>
<g><path style="opacity:0.38" fill="#be7f8b" d="M 87.5,352.5 C 88.9549,354.134 90.6216,355.468 92.5,356.5C 89.4535,356.817 87.7868,355.484 87.5,352.5 Z"/></g>
<g><path style="opacity:0.675" fill="#b66977" d="M 98.5,349.5 C 100.646,353.046 102.646,356.713 104.5,360.5C 100.48,356.559 99.4801,357.559 101.5,363.5C 99.1256,361.066 97.7922,358.066 97.5,354.5C 98.4972,354.53 99.1639,354.03 99.5,353C 99.0109,351.862 98.6775,350.695 98.5,349.5 Z"/></g>
<g><path style="opacity:0.357" fill="#b97c88" d="M 409.5,359.5 C 409.649,358.448 409.483,357.448 409,356.5C 408.329,357.252 407.496,357.586 406.5,357.5C 408.553,354.716 410.219,355.049 411.5,358.5C 411.043,359.298 410.376,359.631 409.5,359.5 Z"/></g>
<g><path style="opacity:0.059" fill="#c1929b" d="M 347.5,354.5 C 347.167,356.833 345.833,358.167 343.5,358.5C 344.5,356.833 345.833,355.5 347.5,354.5 Z"/></g>
<g><path style="opacity:0.714" fill="#a8515f" d="M 481.5,355.5 C 481.008,357.819 480.008,359.819 478.5,361.5C 478.386,358.784 479.386,356.784 481.5,355.5 Z"/></g>
<g><path style="opacity:0.027" fill="#c4939d" d="M 190.5,356.5 C 190.027,357.906 189.027,358.573 187.5,358.5C 187.973,357.094 188.973,356.427 190.5,356.5 Z"/></g>
<g><path style="opacity:0.906" fill="#a94e5b" d="M 318.5,356.5 C 321.811,356.307 324.478,357.307 326.5,359.5C 323.351,359.585 320.684,358.585 318.5,356.5 Z"/></g>
<g><path style="opacity:0.451" fill="#b86d79" d="M 59.5,356.5 C 61.5311,357.539 62.8645,359.205 63.5,361.5C 61.457,360.421 60.1237,358.754 59.5,356.5 Z"/></g>
<g><path style="opacity:1" fill="#911029" d="M 104.5,360.5 C 104.698,362.575 104.865,364.575 105,366.5C 104.241,364.937 103.074,363.937 101.5,363.5C 99.4801,357.559 100.48,356.559 104.5,360.5 Z"/></g>
<g><path style="opacity:0.553" fill="#b56a77" d="M 165.5,357.5 C 172.014,359.205 178.681,359.871 185.5,359.5C 183.566,360.532 181.4,361.198 179,361.5C 174.077,361.167 169.577,359.833 165.5,357.5 Z"/></g>
<g><path style="opacity:0.016" fill="#bf8f98" d="M 416.5,358.5 C 416.573,360.027 415.906,361.027 414.5,361.5C 414.427,359.973 415.094,358.973 416.5,358.5 Z"/></g>
<g><path style="opacity:0.873" fill="#b96d79" d="M 37.5,355.5 C 40.2814,358.372 41.2814,361.705 40.5,365.5C 38.5486,364.226 37.2152,362.56 36.5,360.5C 37.3635,361.463 38.0302,361.463 38.5,360.5C 37.6906,358.929 37.3573,357.262 37.5,355.5 Z"/></g>
<g><path style="opacity:0.504" fill="#b87b87" d="M 398.5,361.5 C 400.059,361.35 401.726,361.017 403.5,360.5C 402.589,364.113 400.922,364.446 398.5,361.5 Z"/></g>
<g><path style="opacity:0.418" fill="#c18893" d="M 119.5,367.5 C 118.5,367.5 117.5,367.5 116.5,367.5C 116.5,366.167 116.5,364.833 116.5,363.5C 115.5,363.5 114.5,363.5 113.5,363.5C 113.833,365.5 114.167,367.5 114.5,369.5C 113.007,368.688 112.34,367.355 112.5,365.5C 112.616,363.448 113.616,362.115 115.5,361.5C 116.834,363.487 118.167,365.487 119.5,367.5 Z"/></g>
<g><path style="opacity:0.498" fill="#b26a77" d="M 409.5,359.5 C 407.079,362.244 404.745,364.91 402.5,367.5C 403.427,363.575 405.76,360.908 409.5,359.5 Z"/></g>
<g><path style="opacity:0.447" fill="#bc7884" d="M 65.5,364.5 C 67.5,364.5 68.5,365.5 68.5,367.5C 67.1667,366.833 66.1667,365.833 65.5,364.5 Z"/></g>
<g><path style="opacity:0.294" fill="#c08490" d="M 92.5,356.5 C 93.4959,356.414 94.3292,356.748 95,357.5C 95.4935,359.134 95.6602,360.801 95.5,362.5C 96.791,362.263 97.791,362.596 98.5,363.5C 97.209,363.263 96.209,363.596 95.5,364.5C 94.0755,362.969 93.4088,363.302 93.5,365.5C 92.9033,365.265 92.5699,364.765 92.5,364C 94.8677,361.561 94.8677,359.061 92.5,356.5 Z"/></g>
<g><path style="opacity:0.78" fill="#b36a76" d="M 398.5,361.5 C 398.799,363.604 398.466,365.604 397.5,367.5C 396.18,369.27 394.68,369.603 393,368.5C 391.595,369.731 390.429,371.064 389.5,372.5C 389.954,369.86 391.121,367.527 393,365.5C 395.508,364.964 397.341,363.631 398.5,361.5 Z"/></g>
<g><path style="opacity:0.6" fill="#ae5665" d="M 98.5,363.5 C 100.104,364.287 100.771,365.62 100.5,367.5C 98.0672,367.727 96.4006,366.727 95.5,364.5C 96.209,363.596 97.209,363.263 98.5,363.5 Z"/></g>
<g><path style="opacity:0.561" fill="#b77682" d="M 390.5,364.5 C 389.817,366.176 388.483,366.843 386.5,366.5C 386.727,368.933 385.727,370.599 383.5,371.5C 384.128,367.374 386.461,365.041 390.5,364.5 Z"/></g>
<g><path style="opacity:0.522" fill="#b26876" d="M 417.5,361.5 C 416.5,364.5 414.5,366.5 411.5,367.5C 413.167,365.167 415.167,363.167 417.5,361.5 Z"/></g>
<g><path style="opacity:0.424" fill="#c28893" d="M 93.5,365.5 C 94.9063,365.973 95.573,366.973 95.5,368.5C 94.0937,368.027 93.427,367.027 93.5,365.5 Z"/></g>
<g><path style="opacity:0.094" fill="#b77a86" d="M 410.5,365.5 C 410.328,366.492 410.662,367.158 411.5,367.5C 409.464,368.626 408.13,370.293 407.5,372.5C 407.672,371.508 407.338,370.842 406.5,370.5C 407.604,368.611 408.937,366.945 410.5,365.5 Z"/></g>
<g><path style="opacity:0.604" fill="#bb7581" d="M 119.5,367.5 C 120.833,368.167 121.833,369.167 122.5,370.5C 120.5,370.5 119.5,369.5 119.5,367.5 Z"/></g>
<g><path style="opacity:0.2" fill="#b87b87" d="M 476.5,365.5 C 475.921,368.331 474.588,370.664 472.5,372.5C 473.079,369.669 474.412,367.336 476.5,365.5 Z"/></g>
<g><path style="opacity:0.322" fill="#b8717e" d="M 104.5,360.5 C 106.644,363.842 108.144,367.508 109,371.5C 109.995,372.066 110.828,372.733 111.5,373.5C 109.821,373.285 108.821,373.952 108.5,375.5C 106.182,371.535 103.848,367.535 101.5,363.5C 103.074,363.937 104.241,364.937 105,366.5C 104.865,364.575 104.698,362.575 104.5,360.5 Z"/></g>
<g><path style="opacity:0.259" fill="#bd8a94" d="M 383.5,371.5 C 383.573,373.027 382.906,374.027 381.5,374.5C 381.427,372.973 382.094,371.973 383.5,371.5 Z"/></g>
<g><path style="opacity:1" fill="#b15d68" d="M 72.5,371.5 C 75.9344,372.977 77.9344,375.643 78.5,379.5C 76.0252,377.23 74.0252,374.563 72.5,371.5 Z"/></g>
<g><path style="opacity:1" fill="#972134" d="M 111.5,373.5 C 111.833,373.5 112.167,373.5 112.5,373.5C 112.738,375.404 113.738,376.738 115.5,377.5C 116.338,377.842 116.672,378.508 116.5,379.5C 116.821,381.048 117.821,381.715 119.5,381.5C 120.537,382.93 121.204,384.597 121.5,386.5C 120.833,386.5 120.167,386.5 119.5,386.5C 118.391,386.557 117.391,386.89 116.5,387.5C 115.833,387.167 115.167,386.833 114.5,386.5C 114.5,385.833 114.167,385.5 113.5,385.5C 113.672,384.508 113.338,383.842 112.5,383.5C 111.664,384.277 110.664,385.61 109.5,387.5C 108.287,386.048 108.62,384.714 110.5,383.5C 109.66,382.265 108.66,381.265 107.5,380.5C 108.649,380.209 109.316,379.376 109.5,378C 109.472,376.93 109.139,376.097 108.5,375.5C 108.821,373.952 109.821,373.285 111.5,373.5 Z"/></g>
<g><path style="opacity:0.467" fill="#be7f8b" d="M 112.5,373.5 C 114.262,374.262 115.262,375.596 115.5,377.5C 113.738,376.738 112.738,375.404 112.5,373.5 Z"/></g>
<g><path style="opacity:0.125" fill="#c0929b" d="M 388.5,373.5 C 388.262,375.404 387.262,376.738 385.5,377.5C 385.738,375.596 386.738,374.262 388.5,373.5 Z"/></g>
<g><path style="opacity:0.376" fill="#c58e98" d="M 103.5,375.5 C 104.833,376.167 105.833,377.167 106.5,378.5C 104.5,378.5 103.5,377.5 103.5,375.5 Z"/></g>
<g><path style="opacity:0.302" fill="#bc848f" d="M 381.5,374.5 C 381.179,376.048 380.179,376.715 378.5,376.5C 378.5,377.5 378.5,378.5 378.5,379.5C 376.727,376.324 377.727,374.657 381.5,374.5 Z"/></g>
<g><path style="opacity:1" fill="#9a2e39" d="M 396.5,379.5 C 395.71,380.401 394.71,381.068 393.5,381.5C 392.325,381.719 391.325,381.386 390.5,380.5C 391.582,378.216 393.248,377.05 395.5,377C 396.252,377.671 396.586,378.504 396.5,379.5 Z"/></g>
<g><path style="opacity:0.047" fill="#c59fa6" d="M 385.5,377.5 C 385.027,378.906 384.027,379.573 382.5,379.5C 382.973,378.094 383.973,377.427 385.5,377.5 Z"/></g>
<g><path style="opacity:0.604" fill="#af616d" d="M 402.5,367.5 C 402.489,369.017 401.823,370.184 400.5,371C 402.473,371.495 404.473,371.662 406.5,371.5C 405.391,372.29 404.058,372.79 402.5,373C 401.837,374.518 400.837,375.685 399.5,376.5C 398.833,377.833 397.833,378.833 396.5,379.5C 396.586,378.504 396.252,377.671 395.5,377C 393.248,377.05 391.582,378.216 390.5,380.5C 391.325,381.386 392.325,381.719 393.5,381.5C 392.71,382.401 391.71,383.068 390.5,383.5C 389.167,383.5 388.5,382.833 388.5,381.5C 392.246,375.754 396.913,371.087 402.5,367.5 Z"/></g>
<g><path style="opacity:1" fill="#911029" d="M 399.5,376.5 C 398.5,376.5 397.5,376.5 396.5,376.5C 396.116,374.335 396.783,372.668 398.5,371.5C 399.452,373.045 399.785,374.712 399.5,376.5 Z"/></g>
<g><path style="opacity:0.294" fill="#bd7d8a" d="M 108.5,375.5 C 109.139,376.097 109.472,376.93 109.5,378C 109.316,379.376 108.649,380.209 107.5,380.5C 106.662,380.158 106.328,379.492 106.5,378.5C 107.117,378.611 107.617,378.944 108,379.5C 108.49,378.207 108.657,376.873 108.5,375.5 Z"/></g>
<g><path style="opacity:1" fill="#ac515a" d="M 126.5,376.5 C 128.341,377.402 129.674,378.736 130.5,380.5C 127.858,380.512 126.525,379.179 126.5,376.5 Z"/></g>
<g><path style="opacity:0.459" fill="#b46f7b" d="M 407.5,373.5 C 406.567,376.37 404.9,378.704 402.5,380.5C 403.433,377.63 405.1,375.296 407.5,373.5 Z"/></g>
<g><path style="opacity:0.149" fill="#b67581" d="M 470.5,376.5 C 469.974,378.23 468.974,379.564 467.5,380.5C 467.554,378.368 468.554,377.035 470.5,376.5 Z"/></g>
<g><path style="opacity:0.357" fill="#bf8490" d="M 116.5,379.5 C 117.71,379.932 118.71,380.599 119.5,381.5C 117.821,381.715 116.821,381.048 116.5,379.5 Z"/></g>
<g><path style="opacity:1" fill="#a94a59" d="M 118.5,373.5 C 122.895,375.562 125.895,378.896 127.5,383.5C 126.167,383.5 124.833,383.5 123.5,383.5C 122.272,381.99 122.272,380.49 123.5,379C 121.627,377.296 119.96,375.463 118.5,373.5 Z"/></g>
<g><path style="opacity:0.455" fill="#bc7783" d="M 78.5,379.5 C 80.0744,379.937 81.2411,380.937 82,382.5C 82.3951,385.207 82.8951,387.873 83.5,390.5C 82.2101,389.942 81.3768,388.942 81,387.5C 80.7276,384.618 79.8943,381.951 78.5,379.5 Z"/></g>
<g><path style="opacity:0.529" fill="#b97380" d="M 123.5,383.5 C 124.833,383.5 126.167,383.5 127.5,383.5C 130.959,384.543 131.292,386.21 128.5,388.5C 128.264,387.284 128.264,386.117 128.5,385C 127.451,384.508 126.451,384.674 125.5,385.5C 124.478,385.145 123.811,384.478 123.5,383.5 Z"/></g>
<g><path style="opacity:0.302" fill="#be8c96" d="M 388.5,381.5 C 388.5,382.833 389.167,383.5 390.5,383.5C 389.055,385.063 387.389,386.396 385.5,387.5C 385.53,386.503 385.03,385.836 384,385.5C 382.7,386.707 381.2,387.374 379.5,387.5C 382.428,385.358 385.428,383.358 388.5,381.5 Z"/></g>
<g><path style="opacity:0.686" fill="#af606d" d="M 402.5,380.5 C 401.962,382.117 401.629,383.784 401.5,385.5C 399.833,385.5 398.167,385.5 396.5,385.5C 397.084,388.285 396.084,389.952 393.5,390.5C 394.931,388.811 395.764,386.811 396,384.5C 398.612,383.783 400.778,382.45 402.5,380.5 Z"/></g>
<g><path style="opacity:0.997" fill="#a54952" d="M 465.5,383.5 C 464.89,385.434 463.89,387.101 462.5,388.5C 460.971,385.573 461.971,383.906 465.5,383.5 Z"/></g>
<g><path style="opacity:0.643" fill="#bb7683" d="M 112.5,383.5 C 112.328,384.492 112.662,385.158 113.5,385.5C 114.167,385.5 114.5,385.833 114.5,386.5C 114.649,387.552 114.483,388.552 114,389.5C 113.329,388.748 112.496,388.414 111.5,388.5C 110.833,388.167 110.167,387.833 109.5,387.5C 110.664,385.61 111.664,384.277 112.5,383.5 Z"/></g>
<g><path style="opacity:0.376" fill="#c08590" d="M 130.5,380.5 C 133.859,383.529 137.192,386.529 140.5,389.5C 135.929,387.931 132.595,384.931 130.5,380.5 Z"/></g>
<g><path style="opacity:0.545" fill="#ae5c6a" d="M 385.5,387.5 C 384.167,388.5 382.833,389.5 381.5,390.5C 381.53,389.503 381.03,388.836 380,388.5C 378.862,388.989 377.695,389.322 376.5,389.5C 376.973,388.094 377.973,387.427 379.5,387.5C 381.2,387.374 382.7,386.707 384,385.5C 385.03,385.836 385.53,386.503 385.5,387.5 Z"/></g>
<g><path style="opacity:0.553" fill="#b9727f" d="M 121.5,386.5 C 122.833,387.167 123.833,388.167 124.5,389.5C 122.5,389.5 121.5,388.5 121.5,386.5 Z"/></g>
<g><path style="opacity:0.997" fill="#9e3642" d="M 381.5,390.5 C 380.415,392.587 378.749,393.92 376.5,394.5C 375.448,394.649 374.448,394.483 373.5,394C 374.823,393.184 375.489,392.017 375.5,390.5C 375.5,389.833 375.833,389.5 376.5,389.5C 377.695,389.322 378.862,388.989 380,388.5C 381.03,388.836 381.53,389.503 381.5,390.5 Z"/></g>
<g><path style="opacity:0.678" fill="#bc7b87" d="M 119.5,386.5 C 119.048,391.227 120.715,395.06 124.5,398C 122.648,398.773 121.314,398.273 120.5,396.5C 121.833,396.167 121.833,395.833 120.5,395.5C 120.5,394.833 120.167,394.5 119.5,394.5C 117.576,392.91 117.243,391.076 118.5,389C 117.584,388.722 116.918,388.222 116.5,387.5C 117.391,386.89 118.391,386.557 119.5,386.5 Z"/></g>
<g><path style="opacity:0.698" fill="#b76d7a" d="M 130.5,390.5 C 132.649,391.59 133.982,393.424 134.5,396C 134.164,397.03 133.497,397.53 132.5,397.5C 132.5,397.167 132.5,396.833 132.5,396.5C 132.396,394.297 131.73,392.297 130.5,390.5 Z"/></g>
<g><path style="opacity:0.965" fill="#aa535c" d="M 461.5,389.5 C 460.551,391.777 459.218,393.777 457.5,395.5C 457.5,393.833 457.5,392.167 457.5,390.5C 458.959,390.567 460.292,390.234 461.5,389.5 Z"/></g>
<g><path style="opacity:0.671" fill="#bb7581" d="M 83.5,391.5 C 85.7964,392.733 87.1298,394.733 87.5,397.5C 85.684,395.882 84.3507,393.882 83.5,391.5 Z"/></g>
<g><path style="opacity:0.875" fill="#ad5a67" d="M 393.5,390.5 C 391.954,392.931 389.621,394.264 386.5,394.5C 388.336,392.412 390.669,391.079 393.5,390.5 Z"/></g>
<g><path style="opacity:0.384" fill="#c38c96" d="M 142.5,390.5 C 145.522,391.522 147.522,393.522 148.5,396.5C 146.118,394.785 144.118,392.785 142.5,390.5 Z"/></g>
<g><path style="opacity:0.792" fill="#b46572" d="M 116.5,393.5 C 117.391,394.11 118.391,394.443 119.5,394.5C 120.167,394.5 120.5,394.833 120.5,395.5C 120.5,395.833 120.5,396.167 120.5,396.5C 118.368,396.446 117.035,395.446 116.5,393.5 Z"/></g>
<g><path style="opacity:0.106" fill="#cba2ab" d="M 129.5,394.5 C 130.222,395.551 131.222,396.218 132.5,396.5C 132.5,396.833 132.5,397.167 132.5,397.5C 131.5,397.5 130.5,397.5 129.5,397.5C 129.5,396.5 129.5,395.5 129.5,394.5 Z"/></g>
<g><path style="opacity:1" fill="#a74755" d="M 126.5,390.5 C 128.262,391.262 129.262,392.596 129.5,394.5C 129.5,395.5 129.5,396.5 129.5,397.5C 130.5,397.5 131.5,397.5 132.5,397.5C 131.432,398.434 130.099,398.768 128.5,398.5C 128.713,395.549 128.046,392.882 126.5,390.5 Z"/></g>
<g><path style="opacity:0.584" fill="#bd7c87" d="M 148.5,396.5 C 150.5,397.833 152.167,399.5 153.5,401.5C 150.833,400.833 149.167,399.167 148.5,396.5 Z"/></g>
<g><path style="opacity:0.757" fill="#af5e6a" d="M 375.5,390.5 C 375.489,392.017 374.823,393.184 373.5,394C 374.448,394.483 375.448,394.649 376.5,394.5C 372.429,396.712 368.429,399.212 364.5,402C 362.421,402.808 360.421,402.641 358.5,401.5C 363.963,397.341 369.63,393.675 375.5,390.5 Z"/></g>
<g><path style="opacity:0.039" fill="#bc8690" d="M 455.5,397.5 C 455.573,399.027 454.906,400.027 453.5,400.5C 453.427,398.973 454.094,397.973 455.5,397.5 Z"/></g>
<g><path style="opacity:0.604" fill="#bc7783" d="M 88.5,399.5 C 90.4456,400.035 91.4456,401.368 91.5,403.5C 90.0256,402.564 89.0256,401.23 88.5,399.5 Z"/></g>
<g><path style="opacity:0.392" fill="#bd8792" d="M 383.5,396.5 C 383.912,398.973 382.912,400.306 380.5,400.5C 381.512,399.128 382.512,397.795 383.5,396.5 Z"/></g>
<g><path style="opacity:0.498" fill="#b6737f" d="M 380.5,400.5 C 380.027,401.906 379.027,402.573 377.5,402.5C 377.973,401.094 378.973,400.427 380.5,400.5 Z"/></g>
<g><path style="opacity:0.733" fill="#b56674" d="M 91.5,403.5 C 93.5311,404.539 94.8645,406.205 95.5,408.5C 93.457,407.421 92.1237,405.754 91.5,403.5 Z"/></g>
<g><path style="opacity:0.604" fill="#ba7582" d="M 153.5,401.5 C 155.912,401.694 156.912,403.027 156.5,405.5C 154.799,404.789 153.799,403.455 153.5,401.5 Z"/></g>
<g><path style="opacity:0.392" fill="#b67480" d="M 377.5,402.5 C 376.738,404.262 375.404,405.262 373.5,405.5C 374.262,403.738 375.596,402.738 377.5,402.5 Z"/></g>
<g><path style="opacity:0.024" fill="#be8e97" d="M 451.5,402.5 C 451.573,404.027 450.906,405.027 449.5,405.5C 449.427,403.973 450.094,402.973 451.5,402.5 Z"/></g>
<g><path style="opacity:0.22" fill="#c28b95" d="M 157.5,405.5 C 160.179,405.525 161.512,406.858 161.5,409.5C 160.167,408.167 158.833,406.833 157.5,405.5 Z"/></g>
<g><path style="opacity:0.514" fill="#b26876" d="M 373.5,405.5 C 373.027,406.906 372.027,407.573 370.5,407.5C 370.973,406.094 371.973,405.427 373.5,405.5 Z"/></g>
<g><path style="opacity:0.004" fill="#c797a1" d="M 95.5,408.5 C 96.9063,408.973 97.573,409.973 97.5,411.5C 96.0937,411.027 95.427,410.027 95.5,408.5 Z"/></g>
<g><path style="opacity:0.835" fill="#ac5765" d="M 370.5,407.5 C 368.685,410.407 366.019,411.741 362.5,411.5C 365.035,409.983 367.702,408.65 370.5,407.5 Z"/></g>
<g><path style="opacity:0.016" fill="#c0909a" d="M 446.5,408.5 C 446.5,410.5 445.5,411.5 443.5,411.5C 444.167,410.167 445.167,409.167 446.5,408.5 Z"/></g>
<g><path style="opacity:0.502" fill="#b87985" d="M 362.5,411.5 C 361.486,412.674 360.153,413.34 358.5,413.5C 359.287,411.896 360.62,411.229 362.5,411.5 Z"/></g>
<g><path style="opacity:0.686" fill="#b9727f" d="M 166.5,412.5 C 168.23,413.026 169.564,414.026 170.5,415.5C 168.368,415.446 167.035,414.446 166.5,412.5 Z"/></g>
<g><path style="opacity:0.063" fill="#c0919a" d="M 443.5,412.5 C 443.167,413.5 442.5,414.167 441.5,414.5C 441.5,413.167 442.167,412.5 443.5,412.5 Z"/></g>
<g><path style="opacity:0.294" fill="#bd7e8a" d="M 141.5,416.5 C 139.983,416.489 138.816,415.823 138,414.5C 137.302,415.691 136.469,416.691 135.5,417.5C 134.522,417.189 133.855,416.522 133.5,415.5C 136.722,412.501 139.389,412.835 141.5,416.5 Z"/></g>
<g><path style="opacity:0.71" fill="#af5f6c" d="M 357.5,413.5 C 355.165,416.165 352.165,417.498 348.5,417.5C 351.088,415.408 354.088,414.075 357.5,413.5 Z"/></g>
<g><path style="opacity:0.757" fill="#b66976" d="M 141.5,416.5 C 144.764,418.094 147.431,420.427 149.5,423.5C 146.236,421.906 143.569,419.573 141.5,416.5 Z"/></g>
<g><path style="opacity:0.29" fill="#c38a95" d="M 102.5,417.5 C 104.5,417.5 105.5,418.5 105.5,420.5C 104.167,419.833 103.167,418.833 102.5,417.5 Z"/></g>
<g><path style="opacity:0.584" fill="#b56772" d="M 170.5,415.5 C 172.801,416.06 175.134,416.56 177.5,417C 178.756,417.417 179.423,418.25 179.5,419.5C 176.853,418.927 174.187,418.26 171.5,417.5C 171.137,416.817 170.804,416.15 170.5,415.5 Z"/></g>
<g><path style="opacity:0.443" fill="#b9727f" d="M 105.5,420.5 C 107.404,420.738 108.738,421.738 109.5,423.5C 107.596,423.262 106.262,422.262 105.5,420.5 Z"/></g>
<g><path style="opacity:0.463" fill="#ba7481" d="M 135.5,417.5 C 136.966,418.347 137.8,419.68 138,421.5C 140.746,420.426 142.579,421.426 143.5,424.5C 141.589,424.426 140.422,423.426 140,421.5C 138.989,422.337 137.822,422.67 136.5,422.5C 136.371,420.784 136.038,419.117 135.5,417.5 Z"/></g>
<g><path style="opacity:0.435" fill="#bb7e8a" d="M 344.5,419.5 C 341.297,420.681 338.297,422.347 335.5,424.5C 337.31,420.689 340.31,419.023 344.5,419.5 Z"/></g>
<g><path style="opacity:0.627" fill="#b46876" d="M 149.5,423.5 C 151.404,423.738 152.738,424.738 153.5,426.5C 151.596,426.262 150.262,425.262 149.5,423.5 Z"/></g>
<g><path style="opacity:0.314" fill="#be838f" d="M 182.5,423.5 C 186.446,423.882 190.112,424.882 193.5,426.5C 189.475,426.37 185.809,425.37 182.5,423.5 Z"/></g>
<g><path style="opacity:0.753" fill="#b46570" d="M 143.5,424.5 C 146.37,425.433 148.704,427.1 150.5,429.5C 147.484,428.727 145.15,427.061 143.5,424.5 Z"/></g>
<g><path style="opacity:0.439" fill="#c2939c" d="M 335.5,424.5 C 330.37,425.913 325.037,426.913 319.5,427.5C 324.506,425.441 329.84,424.441 335.5,424.5 Z"/></g>
<g><path style="opacity:0.431" fill="#b8707d" d="M 153.5,426.5 C 155.404,426.738 156.738,427.738 157.5,429.5C 155.596,429.262 154.262,428.262 153.5,426.5 Z"/></g>
<g><path style="opacity:0.588" fill="#b56775" d="M 114.5,428.5 C 117.167,429.167 118.833,430.833 119.5,433.5C 117.5,432.167 115.833,430.5 114.5,428.5 Z"/></g>
<g><path style="opacity:0.024" fill="#bf909a" d="M 428.5,427.5 C 428.027,428.906 427.027,429.573 425.5,429.5C 425.973,428.094 426.973,427.427 428.5,427.5 Z"/></g>
<g><path style="opacity:0.035" fill="#c798a2" d="M 150.5,429.5 C 152.027,429.427 153.027,430.094 153.5,431.5C 151.973,431.573 150.973,430.906 150.5,429.5 Z"/></g>
<g><path style="opacity:0.086" fill="#c79aa3" d="M 195.5,427.5 C 197.887,429.103 200.554,430.103 203.5,430.5C 203.265,431.097 202.765,431.43 202,431.5C 200.189,430.922 198.355,430.422 196.5,430C 195.748,429.329 195.414,428.496 195.5,427.5 Z"/></g>
<g><path style="opacity:0.204" fill="#c89ea6" d="M 203.5,430.5 C 205.128,429.147 206.462,429.481 207.5,431.5C 206.167,431.167 204.833,430.833 203.5,430.5 Z"/></g>
<g><path style="opacity:0.867" fill="#ad5a68" d="M 319.5,427.5 C 317.824,429.834 315.491,430.834 312.5,430.5C 314.509,428.935 316.843,427.935 319.5,427.5 Z"/></g>
<g><path style="opacity:0.271" fill="#be808b" d="M 153.5,431.5 C 156.674,432.01 159.008,433.677 160.5,436.5C 157.883,435.214 155.55,433.547 153.5,431.5 Z"/></g>
<g><path style="opacity:0.208" fill="#c08792" d="M 161.5,431.5 C 163.027,431.427 164.027,432.094 164.5,433.5C 162.973,433.573 161.973,432.906 161.5,431.5 Z"/></g>
<g><path style="opacity:0.784" fill="#b15f6b" d="M 312.5,430.5 C 309.299,432.26 305.633,433.094 301.5,433C 300.264,434.085 298.931,434.918 297.5,435.5C 296.449,434.778 295.782,433.778 295.5,432.5C 301.009,430.877 306.676,430.21 312.5,430.5 Z"/></g>
<g><path style="opacity:0.584" fill="#af5b6b" d="M 208.5,431.5 C 209.338,431.842 209.672,432.508 209.5,433.5C 211.167,434.167 212.833,434.833 214.5,435.5C 212.5,435.5 210.5,435.5 208.5,435.5C 208.5,434.167 208.5,432.833 208.5,431.5 Z"/></g>
<g><path style="opacity:0.176" fill="#caa3aa" d="M 209.5,433.5 C 214.049,433.624 218.382,434.291 222.5,435.5C 221.5,435.5 220.5,435.5 219.5,435.5C 217.833,435.5 216.167,435.5 214.5,435.5C 212.833,434.833 211.167,434.167 209.5,433.5 Z"/></g>
<g><path style="opacity:0.682" fill="#aa5061" d="M 291.5,432.5 C 291.771,434.43 292.771,435.764 294.5,436.5C 293.5,436.5 292.5,436.5 291.5,436.5C 290.791,435.596 289.791,435.263 288.5,435.5C 287.596,434.791 287.263,433.791 287.5,432.5C 288.833,432.5 290.167,432.5 291.5,432.5 Z"/></g>
<g><path style="opacity:0.482" fill="#b97a87" d="M 291.5,432.5 C 292.702,433.405 294.036,433.405 295.5,432.5C 295.782,433.778 296.449,434.778 297.5,435.5C 296.609,436.11 295.609,436.443 294.5,436.5C 292.771,435.764 291.771,434.43 291.5,432.5 Z"/></g>
<g><path style="opacity:0.027" fill="#bf9099" d="M 421.5,433.5 C 420.738,435.262 419.404,436.262 417.5,436.5C 418.262,434.738 419.596,433.738 421.5,433.5 Z"/></g>
<g><path style="opacity:0.059" fill="#ccabb1" d="M 288.5,435.5 C 289.791,435.263 290.791,435.596 291.5,436.5C 290.833,436.833 290.167,437.167 289.5,437.5C 289.167,437.5 288.833,437.5 288.5,437.5C 288.5,436.833 288.5,436.167 288.5,435.5 Z"/></g>
<g><path style="opacity:0.918" fill="#b15e6a" d="M 219.5,435.5 C 220.5,435.5 221.5,435.5 222.5,435.5C 226.078,435.549 229.411,436.215 232.5,437.5C 232.5,437.833 232.5,438.167 232.5,438.5C 227.813,438.449 223.479,437.449 219.5,435.5 Z"/></g>
<g><path style="opacity:0.302" fill="#c79da6" d="M 266.5,437.5 C 263.813,437.336 261.146,437.503 258.5,438C 259.244,439.039 260.244,439.539 261.5,439.5C 262.773,440.077 262.773,440.743 261.5,441.5C 260.205,440.902 258.872,440.402 257.5,440C 251.509,439.501 245.509,439.334 239.5,439.5C 239.5,439.167 239.5,438.833 239.5,438.5C 245.176,438.666 250.843,438.499 256.5,438C 256.167,437.667 255.833,437.333 255.5,437C 256.416,436.626 257.25,436.126 258,435.5C 260.939,436.128 263.772,436.795 266.5,437.5 Z"/></g>
<g><path style="opacity:0.718" fill="#b66a77" d="M 123.5,437.5 C 126.764,439.094 129.431,441.427 131.5,444.5C 128.236,442.906 125.569,440.573 123.5,437.5 Z"/></g>
<g><path style="opacity:0.867" fill="#b2606c" d="M 172.5,437.5 C 176.085,437.292 178.751,438.625 180.5,441.5C 177.515,440.674 174.849,439.341 172.5,437.5 Z"/></g>
<g><path style="opacity:0.694" fill="#a44256" d="M 266.5,437.5 C 267.919,438.451 269.585,438.784 271.5,438.5C 268.155,439.045 264.821,439.378 261.5,439.5C 260.244,439.539 259.244,439.039 258.5,438C 261.146,437.503 263.813,437.336 266.5,437.5 Z"/></g>
<g><path style="opacity:0.506" fill="#b77380" d="M 288.5,437.5 C 288.833,437.5 289.167,437.5 289.5,437.5C 283.618,437.866 277.618,438.199 271.5,438.5C 269.585,438.784 267.919,438.451 266.5,437.5C 273.856,436.558 281.19,436.558 288.5,437.5 Z"/></g>
<g><path style="opacity:0.161" fill="#c4909a" d="M 162.5,437.5 C 164.819,437.992 166.819,438.992 168.5,440.5C 165.911,440.539 163.911,439.539 162.5,437.5 Z"/></g>
<g><path style="opacity:0.463" fill="#b8727f" d="M 232.5,438.5 C 232.5,438.167 232.5,437.833 232.5,437.5C 235.059,437.198 237.393,437.532 239.5,438.5C 239.5,438.833 239.5,439.167 239.5,439.5C 237.139,439.326 234.806,438.993 232.5,438.5 Z"/></g>
<g><path style="opacity:0.341" fill="#bb7885" d="M 168.5,440.5 C 170.819,440.992 172.819,441.992 174.5,443.5C 171.911,443.539 169.911,442.539 168.5,440.5 Z"/></g>
<g><path style="opacity:0.8" fill="#b2636f" d="M 180.5,441.5 C 183.491,441.166 185.824,442.166 187.5,444.5C 184.843,444.065 182.509,443.065 180.5,441.5 Z"/></g>
<g><path style="opacity:0.624" fill="#b76c79" d="M 131.5,444.5 C 133.749,445.08 135.415,446.413 136.5,448.5C 134.251,447.92 132.585,446.587 131.5,444.5 Z"/></g>
<g><path style="opacity:1" fill="#ad545f" d="M 174.5,443.5 C 177.395,444.399 180.062,445.733 182.5,447.5C 182.5,447.833 182.5,448.167 182.5,448.5C 179.046,447.925 176.379,446.258 174.5,443.5 Z"/></g>
<g><path style="opacity:0.58" fill="#ba717e" d="M 136.5,448.5 C 138.404,448.738 139.738,449.738 140.5,451.5C 138.596,451.262 137.262,450.262 136.5,448.5 Z"/></g>
<g><path style="opacity:0.039" fill="#cfadb4" d="M 182.5,447.5 C 184.306,448.024 185.972,448.691 187.5,449.5C 185.585,449.784 183.919,449.451 182.5,448.5C 182.5,448.167 182.5,447.833 182.5,447.5 Z"/></g>
<g><path style="opacity:0.529" fill="#ae5767" d="M 191.5,446.5 C 194.491,446.166 196.824,447.166 198.5,449.5C 195.843,449.065 193.509,448.065 191.5,446.5 Z"/></g>
<g><path style="opacity:0.576" fill="#b66b79" d="M 187.5,449.5 C 191.149,450.267 194.482,451.6 197.5,453.5C 193.668,453.118 190.335,451.785 187.5,449.5 Z"/></g>
<g><path style="opacity:0.467" fill="#ba7482" d="M 140.5,451.5 C 142.027,451.427 143.027,452.094 143.5,453.5C 141.973,453.573 140.973,452.906 140.5,451.5 Z"/></g>
<g><path style="opacity:0.149" fill="#ba7884" d="M 198.5,449.5 C 199.779,450.968 201.446,451.635 203.5,451.5C 203.5,452.5 203.5,453.5 203.5,454.5C 201.265,454.795 199.265,454.461 197.5,453.5C 197.875,452.207 198.208,450.874 198.5,449.5 Z"/></g>
<g><path style="opacity:0.333" fill="#b97381" d="M 143.5,453.5 C 145.027,453.427 146.027,454.094 146.5,455.5C 144.973,455.573 143.973,454.906 143.5,453.5 Z"/></g>
<g><path style="opacity:0.322" fill="#bb7785" d="M 146.5,455.5 C 148.027,455.427 149.027,456.094 149.5,457.5C 147.973,457.573 146.973,456.906 146.5,455.5 Z"/></g>
<g><path style="opacity:0.208" fill="#c08691" d="M 149.5,457.5 C 151.027,457.427 152.027,458.094 152.5,459.5C 150.973,459.573 149.973,458.906 149.5,457.5 Z"/></g>
<g><path style="opacity:0.008" fill="#c59ca4" d="M 384.5,459.5 C 384.027,460.906 383.027,461.573 381.5,461.5C 381.973,460.094 382.973,459.427 384.5,459.5 Z"/></g>
<g><path style="opacity:0.267" fill="#bc828d" d="M 381.5,461.5 C 379.819,463.008 377.819,464.008 375.5,464.5C 376.911,462.461 378.911,461.461 381.5,461.5 Z"/></g>
<g><path style="opacity:0.231" fill="#bd7d89" d="M 156.5,461.5 C 158.027,461.427 159.027,462.094 159.5,463.5C 157.973,463.573 156.973,462.906 156.5,461.5 Z"/></g>
<g><path style="opacity:0.31" fill="#b67480" d="M 373.5,465.5 C 371.819,467.008 369.819,468.008 367.5,468.5C 368.911,466.461 370.911,465.461 373.5,465.5 Z"/></g>
<g><path style="opacity:0.671" fill="#b15f6e" d="M 171.5,469.5 C 173.698,469.12 175.365,469.787 176.5,471.5C 174.597,471.204 172.93,470.537 171.5,469.5 Z"/></g>
<g><path style="opacity:0.875" fill="#b15d69" d="M 176.5,471.5 C 179.491,471.166 181.824,472.166 183.5,474.5C 180.759,474.293 178.426,473.293 176.5,471.5 Z"/></g>
<g><path style="opacity:0.737" fill="#b26570" d="M 365.5,469.5 C 362.744,471.204 359.744,472.537 356.5,473.5C 358.818,471.044 361.818,469.711 365.5,469.5 Z"/></g>
<g><path style="opacity:0.133" fill="#ba7d8a" d="M 356.5,473.5 C 355.07,474.537 353.403,475.204 351.5,475.5C 352.635,473.787 354.302,473.12 356.5,473.5 Z"/></g>
<g><path style="opacity:1" fill="#a5424f" d="M 183.5,474.5 C 187.653,474.235 190.987,475.569 193.5,478.5C 189.873,477.679 186.54,476.346 183.5,474.5 Z"/></g>
<g><path style="opacity:0.467" fill="#be818c" d="M 193.5,478.5 C 197.915,478.861 201.915,480.194 205.5,482.5C 201.216,481.739 197.216,480.405 193.5,478.5 Z"/></g>
<g><path style="opacity:0.157" fill="#c08d97" d="M 346.5,477.5 C 344.786,478.738 342.786,479.405 340.5,479.5C 342.102,477.926 344.102,477.259 346.5,477.5 Z"/></g>
<g><path style="opacity:0.024" fill="#c4969f" d="M 336.5,480.5 C 334.898,482.074 332.898,482.741 330.5,482.5C 332.214,481.262 334.214,480.595 336.5,480.5 Z"/></g>
<g><path style="opacity:0.322" fill="#bb7985" d="M 206.5,482.5 C 209.228,482.171 211.562,482.837 213.5,484.5C 210.848,484.59 208.515,483.924 206.5,482.5 Z"/></g>
<g><path style="opacity:0.149" fill="#bd848f" d="M 330.5,482.5 C 327.063,483.945 323.397,484.945 319.5,485.5C 322.763,483.432 326.43,482.432 330.5,482.5 Z"/></g>
<g><path style="opacity:0.141" fill="#bd808b" d="M 312.5,486.5 C 305.798,488.749 298.798,490.082 291.5,490.5C 292.514,489.235 294.014,488.569 296,488.5C 301.503,487.785 307.003,487.118 312.5,486.5 Z"/></g>
<g><path style="opacity:0.439" fill="#bc7c89" d="M 227.5,487.5 C 232.537,487.413 237.537,487.746 242.5,488.5C 242.5,488.833 242.5,489.167 242.5,489.5C 237.269,489.556 232.269,488.889 227.5,487.5 Z"/></g>
<g><path style="opacity:0.867" fill="#a84957" d="M 242.5,489.5 C 242.5,489.167 242.5,488.833 242.5,488.5C 247.552,488.45 252.552,488.95 257.5,490C 258.056,490.383 258.389,490.883 258.5,491.5C 256.5,491.5 254.5,491.5 252.5,491.5C 249.316,490.677 245.983,490.01 242.5,489.5 Z"/></g>
</svg>
